<svg width="$size" height="$size" viewBox="0 0 250 250" fill="none" xmlns="http://www.w3.org/2000/svg" $stroke>
    <rect width="250" height="250" rx="20" fill="url(#paint0_linear_57_11)" />
    <path
        d="M34.7784 36C34.7405 35.5265 34.563 35.1572 34.2457 34.892C33.9332 34.6269 33.4574 34.4943 32.8182 34.4943C32.411 34.4943 32.0772 34.544 31.8168 34.6435C31.5611 34.7382 31.3717 34.8684 31.2486 35.0341C31.1255 35.1998 31.0616 35.3892 31.0568 35.6023C31.0473 35.7775 31.0781 35.9361 31.1491 36.0781C31.2249 36.2154 31.3433 36.3409 31.5043 36.4545C31.6652 36.5634 31.8712 36.6629 32.1222 36.7528C32.3731 36.8428 32.6714 36.9233 33.017 36.9943L34.2102 37.25C35.0152 37.4205 35.7041 37.6454 36.277 37.9247C36.8499 38.2041 37.3187 38.5331 37.6832 38.9119C38.0478 39.286 38.3153 39.7074 38.4858 40.1761C38.661 40.6449 38.7509 41.1562 38.7557 41.7102C38.7509 42.6667 38.5118 43.4763 38.0384 44.1392C37.5649 44.8021 36.8878 45.3063 36.0071 45.652C35.1312 45.9976 34.0777 46.1705 32.8466 46.1705C31.5824 46.1705 30.4792 45.9834 29.5369 45.6094C28.5994 45.2353 27.8703 44.66 27.3494 43.8835C26.8333 43.1023 26.5729 42.1032 26.5682 40.8864H30.3182C30.3419 41.3314 30.4531 41.7055 30.652 42.0085C30.8509 42.3116 31.1302 42.5412 31.4901 42.6974C31.8546 42.8537 32.2879 42.9318 32.7898 42.9318C33.2112 42.9318 33.5639 42.8797 33.848 42.7756C34.1321 42.6714 34.3475 42.527 34.4943 42.3423C34.6411 42.1577 34.7169 41.947 34.7216 41.7102C34.7169 41.4877 34.6435 41.2936 34.5014 41.1278C34.3641 40.9574 34.1368 40.8059 33.8196 40.6733C33.5024 40.536 33.0739 40.4081 32.5341 40.2898L31.0852 39.9773C29.7973 39.6979 28.7817 39.2315 28.0384 38.5781C27.2997 37.92 26.9328 37.0227 26.9375 35.8864C26.9328 34.9631 27.179 34.1558 27.6761 33.4645C28.178 32.7685 28.8717 32.2263 29.7571 31.8381C30.6473 31.4498 31.6676 31.2557 32.8182 31.2557C33.9924 31.2557 35.008 31.4522 35.8651 31.8452C36.7221 32.2382 37.3826 32.7921 37.8466 33.5071C38.3153 34.2173 38.5521 35.0483 38.5568 36H34.7784ZM46.8203 35.0909V37.9318H39.6328V35.0909H46.8203ZM41.0249 32.4773H44.9453V42.4915C44.9453 42.643 44.9714 42.7708 45.0234 42.875C45.0755 42.9744 45.156 43.0502 45.2649 43.1023C45.3738 43.1496 45.5135 43.1733 45.6839 43.1733C45.8023 43.1733 45.9396 43.1591 46.0959 43.1307C46.2569 43.1023 46.3752 43.0786 46.451 43.0597L47.0192 45.8153C46.844 45.8674 46.593 45.9313 46.2663 46.0071C45.9444 46.0829 45.5608 46.1326 45.1158 46.1562C44.2161 46.2036 43.4609 46.1113 42.8501 45.8793C42.2393 45.6425 41.7801 45.2708 41.4723 44.7642C41.1645 44.2576 41.0154 43.6231 41.0249 42.8608V32.4773ZM51.4599 46.1705C50.7638 46.1705 50.1483 46.0568 49.6133 45.8295C49.083 45.5975 48.6663 45.2472 48.3633 44.7784C48.0603 44.3097 47.9087 43.7131 47.9087 42.9886C47.9087 42.392 48.0105 41.883 48.2141 41.4616C48.4177 41.0355 48.7018 40.6875 49.0664 40.4176C49.431 40.1477 49.8548 39.9418 50.3377 39.7997C50.8254 39.6577 51.351 39.5653 51.9144 39.5227C52.5252 39.4754 53.0153 39.4186 53.3846 39.3523C53.7586 39.2812 54.0285 39.1842 54.1942 39.0611C54.36 38.9332 54.4428 38.7652 54.4428 38.5568V38.5284C54.4428 38.2443 54.3339 38.0265 54.1161 37.875C53.8983 37.7235 53.619 37.6477 53.2781 37.6477C52.904 37.6477 52.5986 37.7306 52.3619 37.8963C52.1299 38.0573 51.9902 38.3059 51.9428 38.642H48.3349C48.3822 37.9792 48.5929 37.3684 48.967 36.8097C49.3458 36.2462 49.8974 35.7964 50.6218 35.4602C51.3462 35.1193 52.2506 34.9489 53.3349 34.9489C54.1161 34.9489 54.8169 35.0412 55.4371 35.2259C56.0574 35.4058 56.5853 35.6591 57.021 35.9858C57.4566 36.3078 57.788 36.6866 58.0153 37.1222C58.2473 37.553 58.3633 38.0218 58.3633 38.5284V46H54.6985V44.4659H54.6133C54.3955 44.8731 54.1303 45.2022 53.8178 45.4531C53.5101 45.7041 53.1573 45.8864 52.7596 46C52.3666 46.1136 51.9334 46.1705 51.4599 46.1705ZM52.7383 43.6989C53.0366 43.6989 53.3159 43.6373 53.5763 43.5142C53.8415 43.3911 54.0569 43.2135 54.2227 42.9815C54.3884 42.7495 54.4712 42.4678 54.4712 42.1364V41.2273C54.3671 41.2699 54.2558 41.3101 54.1374 41.348C54.0238 41.3859 53.9007 41.4214 53.7681 41.4545C53.6403 41.4877 53.503 41.5185 53.3562 41.5469C53.2141 41.5753 53.065 41.6013 52.9087 41.625C52.6057 41.6723 52.3571 41.7505 52.163 41.8594C51.9736 41.9635 51.8316 42.0938 51.7369 42.25C51.6469 42.4015 51.6019 42.572 51.6019 42.7614C51.6019 43.0644 51.7085 43.2964 51.9215 43.4574C52.1346 43.6184 52.4068 43.6989 52.7383 43.6989ZM60.2365 46V35.0909H64.0433V37.1648H64.157C64.3558 36.3977 64.6707 35.8366 65.1016 35.4815C65.5372 35.1264 66.0462 34.9489 66.6286 34.9489C66.799 34.9489 66.9671 34.9631 67.1328 34.9915C67.3033 35.0152 67.4666 35.0507 67.6229 35.098V38.4432C67.4287 38.3769 67.1896 38.3272 66.9055 38.294C66.6214 38.2609 66.3776 38.2443 66.174 38.2443C65.7905 38.2443 65.4448 38.3319 65.1371 38.5071C64.834 38.6776 64.5949 38.919 64.4197 39.2315C64.2446 39.5393 64.157 39.9015 64.157 40.3182V46H60.2365ZM78.88 38.642H75.272C75.2531 38.4195 75.175 38.2277 75.0376 38.0668C74.9003 37.9058 74.7228 37.7827 74.505 37.6974C74.2919 37.6075 74.0552 37.5625 73.7947 37.5625C73.4586 37.5625 73.1697 37.6241 72.9283 37.7472C72.6868 37.8703 72.5684 38.0455 72.5732 38.2727C72.5684 38.4337 72.6371 38.5829 72.7791 38.7202C72.9259 38.8575 73.2076 38.964 73.6243 39.0398L75.8402 39.4375C76.9576 39.6411 77.7886 39.9844 78.3331 40.4673C78.8823 40.9455 79.1593 41.5871 79.1641 42.392C79.1593 43.1686 78.9273 43.8433 78.468 44.4162C78.0135 44.9844 77.3909 45.4247 76.6001 45.7372C75.8142 46.045 74.9169 46.1989 73.9084 46.1989C72.2417 46.1989 70.9373 45.858 69.995 45.1761C69.0575 44.4943 68.5343 43.5947 68.4254 42.4773H72.3175C72.3696 42.8229 72.54 43.0904 72.8288 43.2798C73.1224 43.4645 73.4917 43.5568 73.9368 43.5568C74.2966 43.5568 74.5926 43.4953 74.8246 43.3722C75.0613 43.2491 75.1821 43.0739 75.1868 42.8466C75.1821 42.6383 75.0779 42.4725 74.8743 42.3494C74.6754 42.2263 74.3629 42.1269 73.9368 42.0511L72.005 41.7102C70.8923 41.5161 70.0589 41.1468 69.505 40.6023C68.951 40.0578 68.6764 39.357 68.6811 38.5C68.6764 37.7424 68.8752 37.1009 69.2777 36.5753C69.6849 36.045 70.2649 35.6425 71.0178 35.3679C71.7753 35.0885 72.6726 34.9489 73.7095 34.9489C75.2862 34.9489 76.5291 35.2756 77.4382 35.929C78.352 36.5824 78.8326 37.4867 78.88 38.642ZM84.5938 46V31.4545H95.0767V34.6364H88.5426V37.1364H94.5369V40.3182H88.5426V42.8182H95.0483V46H84.5938ZM100.132 46.1705C99.4357 46.1705 98.8202 46.0568 98.2852 45.8295C97.7549 45.5975 97.3382 45.2472 97.0352 44.7784C96.7321 44.3097 96.5806 43.7131 96.5806 42.9886C96.5806 42.392 96.6824 41.883 96.886 41.4616C97.0896 41.0355 97.3737 40.6875 97.7383 40.4176C98.1029 40.1477 98.5266 39.9418 99.0096 39.7997C99.4973 39.6577 100.023 39.5653 100.586 39.5227C101.197 39.4754 101.687 39.4186 102.056 39.3523C102.431 39.2812 102.7 39.1842 102.866 39.0611C103.032 38.9332 103.115 38.7652 103.115 38.5568V38.5284C103.115 38.2443 103.006 38.0265 102.788 37.875C102.57 37.7235 102.291 37.6477 101.95 37.6477C101.576 37.6477 101.27 37.7306 101.034 37.8963C100.802 38.0573 100.662 38.3059 100.615 38.642H97.0067C97.0541 37.9792 97.2648 37.3684 97.6388 36.8097C98.0176 36.2462 98.5692 35.7964 99.2937 35.4602C100.018 35.1193 100.922 34.9489 102.007 34.9489C102.788 34.9489 103.489 35.0412 104.109 35.2259C104.729 35.4058 105.257 35.6591 105.693 35.9858C106.128 36.3078 106.46 36.6866 106.687 37.1222C106.919 37.553 107.035 38.0218 107.035 38.5284V46H103.37V44.4659H103.285C103.067 44.8731 102.802 45.2022 102.49 45.4531C102.182 45.7041 101.829 45.8864 101.431 46C101.038 46.1136 100.605 46.1705 100.132 46.1705ZM101.41 43.6989C101.708 43.6989 101.988 43.6373 102.248 43.5142C102.513 43.3911 102.729 43.2135 102.895 42.9815C103.06 42.7495 103.143 42.4678 103.143 42.1364V41.2273C103.039 41.2699 102.928 41.3101 102.809 41.348C102.696 41.3859 102.573 41.4214 102.44 41.4545C102.312 41.4877 102.175 41.5185 102.028 41.5469C101.886 41.5753 101.737 41.6013 101.581 41.625C101.278 41.6723 101.029 41.7505 100.835 41.8594C100.645 41.9635 100.503 42.0938 100.409 42.25C100.319 42.4015 100.274 42.572 100.274 42.7614C100.274 43.0644 100.38 43.2964 100.593 43.4574C100.806 43.6184 101.079 43.6989 101.41 43.6989ZM108.908 46V35.0909H112.715V37.1648H112.829C113.028 36.3977 113.343 35.8366 113.773 35.4815C114.209 35.1264 114.718 34.9489 115.3 34.9489C115.471 34.9489 115.639 34.9631 115.805 34.9915C115.975 35.0152 116.138 35.0507 116.295 35.098V38.4432C116.101 38.3769 115.862 38.3272 115.577 38.294C115.293 38.2609 115.049 38.2443 114.846 38.2443C114.462 38.2443 114.117 38.3319 113.809 38.5071C113.506 38.6776 113.267 38.919 113.092 39.2315C112.916 39.5393 112.829 39.9015 112.829 40.3182V46H108.908ZM121.501 39.8636V46H117.58V35.0909H121.302V37.1648H121.415C121.652 36.4735 122.069 35.9313 122.665 35.5384C123.267 35.1454 123.968 34.9489 124.768 34.9489C125.54 34.9489 126.21 35.1264 126.778 35.4815C127.351 35.8319 127.793 36.3149 128.106 36.9304C128.423 37.5459 128.579 38.2491 128.575 39.0398V46H124.654V39.8636C124.659 39.3239 124.522 38.9001 124.242 38.5923C123.968 38.2846 123.584 38.1307 123.092 38.1307C122.77 38.1307 122.488 38.2017 122.246 38.3438C122.01 38.4811 121.827 38.6799 121.7 38.9403C121.572 39.196 121.505 39.5038 121.501 39.8636ZM135.737 46.1989C134.572 46.1989 133.569 45.9763 132.726 45.5312C131.888 45.0814 131.241 44.4375 130.787 43.5994C130.337 42.7566 130.112 41.7481 130.112 40.5739C130.112 39.447 130.339 38.4621 130.794 37.6193C131.249 36.7765 131.89 36.1207 132.719 35.652C133.547 35.1832 134.525 34.9489 135.652 34.9489C136.476 34.9489 137.222 35.0767 137.889 35.3324C138.557 35.5881 139.127 35.9598 139.601 36.4474C140.074 36.9304 140.439 37.5175 140.695 38.2088C140.95 38.9001 141.078 39.679 141.078 40.5455V41.4545H131.334V39.2955H137.47C137.465 38.983 137.385 38.7083 137.229 38.4716C137.077 38.2301 136.871 38.0431 136.611 37.9105C136.355 37.7732 136.064 37.7045 135.737 37.7045C135.42 37.7045 135.129 37.7732 134.864 37.9105C134.598 38.0431 134.385 38.2277 134.224 38.4645C134.068 38.7012 133.985 38.9782 133.976 39.2955V41.625C133.976 41.9754 134.049 42.2879 134.196 42.5625C134.343 42.8371 134.554 43.0526 134.828 43.2088C135.103 43.3651 135.434 43.4432 135.822 43.4432C136.092 43.4432 136.339 43.4053 136.561 43.3295C136.788 43.2538 136.982 43.1449 137.143 43.0028C137.304 42.8561 137.423 42.6809 137.499 42.4773H141.078C140.955 43.2348 140.664 43.893 140.205 44.4517C139.745 45.0057 139.137 45.4366 138.379 45.7443C137.626 46.0473 136.746 46.1989 135.737 46.1989ZM146.627 46.142C145.85 46.142 145.135 45.9384 144.482 45.5312C143.833 45.1241 143.312 44.5062 142.919 43.6776C142.531 42.849 142.337 41.8049 142.337 40.5455C142.337 39.2292 142.541 38.1591 142.948 37.3352C143.36 36.5114 143.89 35.9077 144.539 35.5241C145.192 35.1406 145.879 34.9489 146.598 34.9489C147.138 34.9489 147.612 35.0436 148.019 35.233C148.426 35.4176 148.767 35.6662 149.042 35.9787C149.316 36.2865 149.525 36.625 149.667 36.9943H149.723V31.4545H153.644V46H149.752V44.2102H149.667C149.515 44.5795 149.297 44.911 149.013 45.2045C148.734 45.4934 148.393 45.723 147.99 45.8935C147.593 46.0592 147.138 46.142 146.627 46.142ZM148.076 43.1307C148.435 43.1307 148.743 43.0265 148.999 42.8182C149.259 42.6051 149.458 42.3068 149.596 41.9233C149.738 41.535 149.809 41.0758 149.809 40.5455C149.809 40.0057 149.738 39.544 149.596 39.1605C149.458 38.7723 149.259 38.4763 148.999 38.2727C148.743 38.0644 148.435 37.9602 148.076 37.9602C147.716 37.9602 147.408 38.0644 147.152 38.2727C146.901 38.4763 146.707 38.7723 146.57 39.1605C146.437 39.544 146.371 40.0057 146.371 40.5455C146.371 41.0852 146.437 41.5492 146.57 41.9375C146.707 42.321 146.901 42.617 147.152 42.8253C147.408 43.0289 147.716 43.1307 148.076 43.1307Z"
        fill="white" />
    <path
        fill="white" />
    
    <text x="25" y="60" fill="gray" font-family="Tahoma" font-size="10">@$username</text>

    <text x="20" y="155" fill="white" font-family="Tahoma" font-weight="bold" font-size="51">$stars</text>
    <defs>
        <linearGradient id="paint0_linear_57_11" x1="240" y1="131.5" x2="50.5" y2="316.5"
            gradientUnits="userSpaceOnUse">
            <stop offset="1" stop-color="#090909" />
        </linearGradient>
    </defs>
</svg>