<svg xmlns="http://www.w3.org/2000/svg" width="250" height="250" fill="none"><rect x="5" y="5" width="240" height="240" rx="20" fill="url(#prefix__41b10cd4)"/><text color="#fff" font-size="100" x="50" y="150">0</text><rect x="32" y="173" width="3" height="44" rx="1.5" fill="#78FF6D"/><path d="M53.021 191h-1.443v-4.238h-4.004V191h-1.443v-9.282h1.443v3.848h4.004v-3.848h1.443V191zm4.785-7.137c.58 0 1.083.13 1.508.39.425.251.75.615.975 1.092.234.477.351 1.04.351 1.69v.754h-4.407c.017.719.19 1.27.52 1.651s.793.572 1.391.572a4.93 4.93 0 001.131-.117c.338-.087.68-.212 1.027-.377v1.144c-.33.156-.667.273-1.014.351-.338.078-.75.117-1.235.117-.633 0-1.196-.134-1.69-.403a2.805 2.805 0 01-1.157-1.196c-.277-.537-.416-1.196-.416-1.976 0-.789.126-1.456.377-2.002.251-.546.602-.962 1.053-1.248.46-.295.988-.442 1.586-.442zm0 1.066c-.442 0-.797.16-1.066.481-.269.321-.425.776-.468 1.365h2.977a2.73 2.73 0 00-.156-.962 1.37 1.37 0 00-.481-.65c-.208-.156-.477-.234-.806-.234zm3.19-.936h1.508l1.34 3.978c.069.199.13.394.181.585.061.191.109.381.143.572.044.182.078.364.104.546h.04a13.4 13.4 0 01.181-.793c.078-.312.165-.62.26-.923l1.274-3.965h1.521l-2.808 7.956a4.675 4.675 0 01-.598 1.157 2.3 2.3 0 01-.832.754c-.32.173-.706.26-1.157.26-.19 0-.364-.013-.52-.039a3.566 3.566 0 01-.39-.065v-1.092c.087.017.195.035.325.052.13.017.265.026.403.026.252 0 .468-.052.65-.156a1.3 1.3 0 00.455-.442 2.51 2.51 0 00.3-.65l.26-.754-2.64-7.007zm8.813 4.251h-1.144l-.247-6.526h1.65l-.26 6.526zm-1.47 1.989c0-.338.088-.576.26-.715a.985.985 0 01.638-.208c.234 0 .438.069.61.208.183.139.274.377.274.715 0 .338-.091.581-.273.728a.916.916 0 01-.611.221.951.951 0 01-.637-.221c-.173-.147-.26-.39-.26-.728zM52.8 209h-1.664l-2.717-4.277-.845.754V209h-1.443v-9.282h1.443v4.485c.2-.269.403-.533.611-.793l.624-.78 2.275-2.912h1.638l-3.276 4.056L52.8 209zm3.635-7.137c.58 0 1.083.13 1.508.39.425.251.75.615.975 1.092.234.477.35 1.04.35 1.69v.754h-4.406c.017.719.19 1.27.52 1.651s.793.572 1.39.572a4.93 4.93 0 001.132-.117c.338-.087.68-.212 1.027-.377v1.144c-.33.156-.667.273-1.014.351a5.58 5.58 0 01-1.235.117c-.633 0-1.196-.134-1.69-.403a2.806 2.806 0 01-1.157-1.196c-.277-.537-.416-1.196-.416-1.976 0-.789.126-1.456.377-2.002.251-.546.602-.962 1.053-1.248.46-.295.988-.442 1.586-.442zm0 1.066c-.442 0-.797.16-1.066.481-.269.321-.425.776-.468 1.365h2.977a2.73 2.73 0 00-.156-.962 1.37 1.37 0 00-.481-.65c-.208-.156-.477-.234-.806-.234zm7.058-1.066c.581 0 1.084.13 1.508.39.425.251.75.615.975 1.092.234.477.352 1.04.352 1.69v.754H61.92c.018.719.191 1.27.52 1.651.33.381.794.572 1.392.572a4.93 4.93 0 001.13-.117c.338-.087.68-.212 1.028-.377v1.144c-.33.156-.668.273-1.014.351-.338.078-.75.117-1.236.117-.632 0-1.196-.134-1.69-.403a2.805 2.805 0 01-1.156-1.196c-.278-.537-.416-1.196-.416-1.976 0-.789.125-1.456.377-2.002.25-.546.602-.962 1.053-1.248.459-.295.987-.442 1.585-.442zm0 1.066c-.442 0-.797.16-1.066.481-.268.321-.424.776-.468 1.365h2.977a2.73 2.73 0 00-.156-.962 1.37 1.37 0 00-.48-.65c-.209-.156-.477-.234-.806-.234zm7.787-1.066c.789 0 1.421.303 1.898.91.477.607.715 1.512.715 2.717 0 .789-.113 1.456-.338 2.002-.217.546-.524.958-.923 1.235-.399.269-.862.403-1.39.403-.322 0-.608-.043-.859-.13a2.152 2.152 0 01-.637-.364 3.944 3.944 0 01-.442-.494h-.078c.017.156.035.342.052.559.017.208.026.394.026.559v2.86H67.9v-10.127h1.144l.195.936h.065c.13-.191.282-.368.455-.533.182-.165.394-.295.637-.39.251-.095.546-.143.884-.143zm-.377 1.131c-.381 0-.689.087-.923.26-.234.165-.407.416-.52.754-.104.329-.156.75-.156 1.261v.208c0 .537.048.997.143 1.378.104.373.273.659.507.858.243.191.568.286.975.286.347 0 .633-.104.858-.312.225-.217.39-.516.494-.897.113-.381.17-.823.17-1.326 0-.763-.13-1.365-.39-1.807-.252-.442-.638-.663-1.158-.663zm10.492 6.136c-.615 0-1.157-.126-1.625-.377-.459-.251-.819-.641-1.079-1.17-.25-.537-.377-1.218-.377-2.041 0-.867.14-1.569.416-2.106.278-.537.655-.932 1.131-1.183.477-.26 1.023-.39 1.638-.39.364 0 .711.043 1.04.13.338.078.616.169.832.273l-.429 1.105a6.5 6.5 0 00-.702-.234 2.704 2.704 0 00-.715-.104c-.398 0-.728.095-.988.286-.25.182-.442.459-.572.832-.13.364-.195.823-.195 1.378 0 .529.065.975.195 1.339s.321.641.572.832c.26.182.572.273.936.273.356 0 .672-.043.95-.13a3.83 3.83 0 00.792-.338v1.196a2.779 2.779 0 01-.793.325 4.429 4.429 0 01-1.027.104zm9.228-3.64c0 .581-.074 1.096-.22 1.547-.148.451-.36.832-.638 1.144-.269.312-.598.55-.988.715-.39.156-.828.234-1.313.234a3.23 3.23 0 01-1.235-.234 2.787 2.787 0 01-.988-.715 3.343 3.343 0 01-.65-1.144c-.147-.451-.22-.971-.22-1.56 0-.771.125-1.426.376-1.963.251-.537.611-.945 1.08-1.222.476-.286 1.04-.429 1.69-.429.606 0 1.143.143 1.611.429.468.277.832.685 1.092 1.222.269.537.403 1.196.403 1.976zm-4.797 0c0 .52.056.971.17 1.352.12.373.302.659.545.858.251.199.568.299.95.299.39 0 .705-.1.948-.299.251-.199.433-.485.546-.858.121-.381.182-.832.182-1.352 0-.537-.06-.988-.182-1.352-.121-.364-.303-.641-.546-.832-.243-.199-.563-.299-.962-.299-.58 0-1 .217-1.26.65-.26.433-.39 1.044-.39 1.833zm8.647 3.64c-.78 0-1.412-.303-1.898-.91-.476-.607-.715-1.508-.715-2.704 0-1.205.243-2.115.728-2.73.486-.615 1.123-.923 1.911-.923.338 0 .629.048.871.143.243.087.455.208.637.364s.334.329.455.52h.078a20.977 20.977 0 01-.065-.52 8.567 8.567 0 01-.026-.624v-2.626h1.404V209h-1.105l-.247-.936h-.052a2.474 2.474 0 01-.455.546 2.163 2.163 0 01-.65.377 2.388 2.388 0 01-.87.143zm.377-1.131c.607 0 1.032-.186 1.274-.559.252-.381.377-.949.377-1.703v-.208c0-.823-.117-1.452-.35-1.885-.235-.433-.672-.65-1.314-.65-.502 0-.884.23-1.144.689-.26.451-.39 1.07-.39 1.859 0 .789.13 1.395.39 1.82.26.425.646.637 1.157.637zm6.396-6.006V209h-1.417v-7.007h1.417zm-.689-2.665c.208 0 .39.061.546.182.156.121.234.325.234.611 0 .277-.078.481-.234.611a.866.866 0 01-.546.182.905.905 0 01-.572-.182c-.156-.13-.234-.334-.234-.611 0-.286.078-.49.234-.611a.905.905 0 01.572-.182zm6.093 2.535c.763 0 1.348.204 1.755.611.416.407.624 1.062.624 1.963V209h-1.404v-4.368c0-.546-.108-.953-.325-1.222-.208-.277-.533-.416-.975-.416-.65 0-1.096.212-1.339.637-.242.425-.364 1.036-.364 1.833V209h-1.404v-7.007h1.105l.195.936h.078a2.101 2.101 0 011.235-.949c.26-.078.533-.117.819-.117zm6.588 0a2.4 2.4 0 011.131.26c.338.173.624.438.858.793h.052l.156-.923h1.157v7.098c0 .659-.113 1.213-.338 1.664a2.2 2.2 0 01-1.027 1.014c-.46.234-1.04.351-1.742.351a7.79 7.79 0 01-1.326-.104 4.845 4.845 0 01-1.092-.325v-1.209a3.9 3.9 0 00.728.299c.26.087.533.147.819.182.294.043.598.065.91.065.537 0 .949-.165 1.235-.494.294-.321.442-.776.442-1.365v-.234c0-.113.004-.26.013-.442.008-.191.017-.329.026-.416h-.052c-.217.364-.49.633-.819.806-.321.165-.702.247-1.144.247-.815 0-1.456-.316-1.924-.949-.468-.641-.702-1.53-.702-2.665 0-.763.104-1.413.312-1.95.216-.546.52-.966.91-1.261.398-.295.871-.442 1.417-.442zm.338 1.144c-.33 0-.607.1-.832.299-.226.191-.399.472-.52.845-.113.373-.169.832-.169 1.378 0 .815.13 1.434.39 1.859.26.425.641.637 1.144.637.294 0 .546-.043.754-.13a1.16 1.16 0 00.507-.403c.138-.182.238-.412.299-.689.069-.286.104-.628.104-1.027v-.26c0-.598-.061-1.079-.182-1.443-.113-.373-.295-.641-.546-.806-.243-.173-.559-.26-.949-.26zm6.265 3.237h-1.144l-.247-6.526h1.651l-.26 6.526zm-1.469 1.989c0-.338.087-.576.26-.715a.986.986 0 01.637-.208c.234 0 .438.069.611.208.182.139.273.377.273.715 0 .338-.091.581-.273.728a.915.915 0 01-.611.221.952.952 0 01-.637-.221c-.173-.147-.26-.39-.26-.728zM42.04 58.18c0 .853-.207 1.58-.62 2.18-.413.587-1.007 1.04-1.78 1.36-.76.32-1.66.48-2.7.48-.533 0-1.047-.027-1.54-.08-.48-.053-.92-.127-1.32-.22a6.111 6.111 0 01-1.06-.38V59.8c.48.213 1.073.407 1.78.58.72.173 1.46.26 2.22.26.707 0 1.3-.093 1.78-.28.48-.187.84-.453 1.08-.8.24-.347.36-.753.36-1.22 0-.467-.1-.86-.3-1.18-.2-.32-.547-.613-1.04-.88-.48-.28-1.153-.573-2.02-.88a12.476 12.476 0 01-1.62-.72 4.933 4.933 0 01-1.14-.9 3.463 3.463 0 01-.7-1.14c-.147-.427-.22-.92-.22-1.48 0-.76.193-1.407.58-1.94.387-.547.92-.967 1.6-1.26.693-.293 1.487-.44 2.38-.44.787 0 1.507.073 2.16.22.653.147 1.247.34 1.78.58l-.56 1.54a10.492 10.492 0 00-1.62-.54 7.234 7.234 0 00-1.8-.22c-.6 0-1.1.087-1.5.26-.4.173-.7.42-.9.74-.2.307-.3.667-.3 1.08 0 .48.1.88.3 1.2.2.32.527.607.98.86.453.253 1.067.527 1.84.82.84.307 1.547.64 2.12 1 .587.347 1.027.767 1.32 1.26.307.493.46 1.113.46 1.86zm6.217 2.58c.266 0 .54-.02.82-.06.28-.053.506-.107.68-.16v1.34c-.187.093-.454.167-.8.22-.347.067-.68.1-1 .1-.56 0-1.08-.093-1.56-.28-.467-.2-.847-.54-1.14-1.02-.294-.48-.44-1.153-.44-2.02v-6.24h-1.52v-.84l1.54-.7.7-2.28h1.04v2.46h3.1v1.36h-3.1v6.2c0 .653.153 1.14.46 1.46.32.307.726.46 1.22.46zm7.786-9.68c.92 0 1.707.2 2.36.6.667.4 1.174.967 1.52 1.7.36.72.54 1.567.54 2.54v1.06h-7.34c.027 1.213.334 2.14.92 2.78.6.627 1.434.94 2.5.94.68 0 1.28-.06 1.8-.18.533-.133 1.08-.32 1.64-.56v1.54a7.87 7.87 0 01-1.62.52c-.533.12-1.166.18-1.9.18-1.013 0-1.913-.207-2.7-.62-.773-.413-1.38-1.027-1.82-1.84-.426-.827-.64-1.833-.64-3.02 0-1.173.194-2.18.58-3.02.4-.84.953-1.487 1.66-1.94.72-.453 1.553-.68 2.5-.68zm-.02 1.44c-.84 0-1.507.273-2 .82-.48.533-.767 1.28-.86 2.24h5.46c0-.613-.093-1.147-.28-1.6a2.26 2.26 0 00-.86-1.06c-.373-.267-.86-.4-1.46-.4zm11.23-1.42c1.306 0 2.272.287 2.9.86.626.573.94 1.487.94 2.74V62h-1.28l-.34-1.52h-.08a6.103 6.103 0 01-.96.98 3.16 3.16 0 01-1.12.56c-.414.12-.92.18-1.52.18a4.31 4.31 0 01-1.74-.34 2.678 2.678 0 01-1.2-1.04c-.294-.48-.44-1.08-.44-1.8 0-1.067.42-1.887 1.26-2.46.84-.587 2.132-.907 3.88-.96l1.82-.06v-.64c0-.893-.194-1.513-.58-1.86-.388-.347-.934-.52-1.64-.52a4.91 4.91 0 00-1.6.26c-.507.16-.98.347-1.42.56l-.54-1.32a7.704 7.704 0 011.66-.64 7.105 7.105 0 012-.28zm.52 5.72c-1.334.053-2.26.267-2.78.64-.507.373-.76.9-.76 1.58 0 .6.18 1.04.54 1.32.373.28.846.42 1.42.42.906 0 1.66-.247 2.26-.74.6-.507.9-1.28.9-2.32v-.96l-1.58.06zm8.37-2.08c0 .213-.013.493-.04.84-.013.347-.026.647-.04.9h.08c.08-.107.2-.26.36-.46l.48-.6c.173-.213.32-.387.44-.52l3.42-3.62h2.06l-4.34 4.58 4.64 6.14h-2.12l-3.72-5-1.22 1.06V62h-1.74V46.8h1.74v7.94zm15.924 4.3c0 .693-.174 1.273-.52 1.74-.347.467-.84.82-1.48 1.06-.64.24-1.4.36-2.28.36-.747 0-1.394-.06-1.94-.18a5.924 5.924 0 01-1.42-.5v-1.6c.426.213.94.413 1.54.6a6.81 6.81 0 001.86.26c.893 0 1.54-.14 1.94-.42.4-.293.6-.68.6-1.16 0-.267-.074-.507-.22-.72-.147-.213-.414-.427-.8-.64-.374-.213-.914-.453-1.62-.72a15.43 15.43 0 01-1.78-.8c-.494-.267-.874-.587-1.14-.96-.267-.373-.4-.853-.4-1.44 0-.907.366-1.607 1.1-2.1.746-.493 1.72-.74 2.92-.74.653 0 1.26.067 1.82.2.573.12 1.106.293 1.6.52l-.6 1.4a6.506 6.506 0 00-.94-.34 6.174 6.174 0 00-.98-.24 5.185 5.185 0 00-1.02-.1c-.72 0-1.274.12-1.66.36-.374.227-.56.54-.56.94 0 .293.086.547.26.76.173.2.46.4.86.6.413.187.96.413 1.64.68.68.253 1.26.513 1.74.78s.846.593 1.1.98c.253.373.38.847.38 1.42z" fill="#fff"/><path d="M201.896 64.979l-2.383-.691a.47.47 0 01-.321-.582l5.332-18.368a.47.47 0 01.582-.32l2.383.691a.47.47 0 01.321.582l-5.332 18.368a.468.468 0 01-.582.32zm-4.454-4.383l1.7-1.812a.469.469 0 00-.032-.672l-3.539-3.114 3.539-3.113c.2-.175.215-.48.032-.672l-1.7-1.812a.47.47 0 00-.664-.02l-5.629 5.274a.466.466 0 000 .683l5.629 5.278c.192.18.489.172.664-.02zm12.782.024l5.629-5.278a.466.466 0 000-.683l-5.629-5.282a.473.473 0 00-.664.02l-1.7 1.813a.469.469 0 00.032.671l3.539 3.117-3.539 3.114a.465.465 0 00-.032.672l1.7 1.812a.47.47 0 00.664.024z" fill="#A0A0A0"/><defs><linearGradient id="prefix__41b10cd4" x1="245" y1="5" x2="5" y2="245" gradientUnits="userSpaceOnUse"><stop/><stop offset="1" stop-color="#1A1A1A"/></linearGradient><linearGradient id="prefix__faf29059" x1="50.5" y1="62" x2="50.5" y2="149" gradientUnits="userSpaceOnUse"><stop stop-color="#fff"/><stop offset="1" stop-color="#999"/></linearGradient></defs></svg>