<svg width="250" height="250" viewBox="0 0 250 250" fill="none" xmlns="http://www.w3.org/2000/svg">
<rect width="250" height="250" rx="20" fill="url(#paint0_linear_57_11)"/>
<path d="M34.7784 36C34.7405 35.5265 34.563 35.1572 34.2457 34.892C33.9332 34.6269 33.4574 34.4943 32.8182 34.4943C32.411 34.4943 32.0772 34.544 31.8168 34.6435C31.5611 34.7382 31.3717 34.8684 31.2486 35.0341C31.1255 35.1998 31.0616 35.3892 31.0568 35.6023C31.0473 35.7775 31.0781 35.9361 31.1491 36.0781C31.2249 36.2154 31.3433 36.3409 31.5043 36.4545C31.6652 36.5634 31.8712 36.6629 32.1222 36.7528C32.3731 36.8428 32.6714 36.9233 33.017 36.9943L34.2102 37.25C35.0152 37.4205 35.7041 37.6454 36.277 37.9247C36.8499 38.2041 37.3187 38.5331 37.6832 38.9119C38.0478 39.286 38.3153 39.7074 38.4858 40.1761C38.661 40.6449 38.7509 41.1562 38.7557 41.7102C38.7509 42.6667 38.5118 43.4763 38.0384 44.1392C37.5649 44.8021 36.8878 45.3063 36.0071 45.652C35.1312 45.9976 34.0777 46.1705 32.8466 46.1705C31.5824 46.1705 30.4792 45.9834 29.5369 45.6094C28.5994 45.2353 27.8703 44.66 27.3494 43.8835C26.8333 43.1023 26.5729 42.1032 26.5682 40.8864H30.3182C30.3419 41.3314 30.4531 41.7055 30.652 42.0085C30.8509 42.3116 31.1302 42.5412 31.4901 42.6974C31.8546 42.8537 32.2879 42.9318 32.7898 42.9318C33.2112 42.9318 33.5639 42.8797 33.848 42.7756C34.1321 42.6714 34.3475 42.527 34.4943 42.3423C34.6411 42.1577 34.7169 41.947 34.7216 41.7102C34.7169 41.4877 34.6435 41.2936 34.5014 41.1278C34.3641 40.9574 34.1368 40.8059 33.8196 40.6733C33.5024 40.536 33.0739 40.4081 32.5341 40.2898L31.0852 39.9773C29.7973 39.6979 28.7817 39.2315 28.0384 38.5781C27.2997 37.92 26.9328 37.0227 26.9375 35.8864C26.9328 34.9631 27.179 34.1558 27.6761 33.4645C28.178 32.7685 28.8717 32.2263 29.7571 31.8381C30.6473 31.4498 31.6676 31.2557 32.8182 31.2557C33.9924 31.2557 35.008 31.4522 35.8651 31.8452C36.7221 32.2382 37.3826 32.7921 37.8466 33.5071C38.3153 34.2173 38.5521 35.0483 38.5568 36H34.7784ZM46.8203 35.0909V37.9318H39.6328V35.0909H46.8203ZM41.0249 32.4773H44.9453V42.4915C44.9453 42.643 44.9714 42.7708 45.0234 42.875C45.0755 42.9744 45.156 43.0502 45.2649 43.1023C45.3738 43.1496 45.5135 43.1733 45.6839 43.1733C45.8023 43.1733 45.9396 43.1591 46.0959 43.1307C46.2569 43.1023 46.3752 43.0786 46.451 43.0597L47.0192 45.8153C46.844 45.8674 46.593 45.9313 46.2663 46.0071C45.9444 46.0829 45.5608 46.1326 45.1158 46.1562C44.2161 46.2036 43.4609 46.1113 42.8501 45.8793C42.2393 45.6425 41.7801 45.2708 41.4723 44.7642C41.1645 44.2576 41.0154 43.6231 41.0249 42.8608V32.4773ZM51.4599 46.1705C50.7638 46.1705 50.1483 46.0568 49.6133 45.8295C49.083 45.5975 48.6663 45.2472 48.3633 44.7784C48.0603 44.3097 47.9087 43.7131 47.9087 42.9886C47.9087 42.392 48.0105 41.883 48.2141 41.4616C48.4177 41.0355 48.7018 40.6875 49.0664 40.4176C49.431 40.1477 49.8548 39.9418 50.3377 39.7997C50.8254 39.6577 51.351 39.5653 51.9144 39.5227C52.5252 39.4754 53.0153 39.4186 53.3846 39.3523C53.7586 39.2812 54.0285 39.1842 54.1942 39.0611C54.36 38.9332 54.4428 38.7652 54.4428 38.5568V38.5284C54.4428 38.2443 54.3339 38.0265 54.1161 37.875C53.8983 37.7235 53.619 37.6477 53.2781 37.6477C52.904 37.6477 52.5986 37.7306 52.3619 37.8963C52.1299 38.0573 51.9902 38.3059 51.9428 38.642H48.3349C48.3822 37.9792 48.5929 37.3684 48.967 36.8097C49.3458 36.2462 49.8974 35.7964 50.6218 35.4602C51.3462 35.1193 52.2506 34.9489 53.3349 34.9489C54.1161 34.9489 54.8169 35.0412 55.4371 35.2259C56.0574 35.4058 56.5853 35.6591 57.021 35.9858C57.4566 36.3078 57.788 36.6866 58.0153 37.1222C58.2473 37.553 58.3633 38.0218 58.3633 38.5284V46H54.6985V44.4659H54.6133C54.3955 44.8731 54.1303 45.2022 53.8178 45.4531C53.5101 45.7041 53.1573 45.8864 52.7596 46C52.3666 46.1136 51.9334 46.1705 51.4599 46.1705ZM52.7383 43.6989C53.0366 43.6989 53.3159 43.6373 53.5763 43.5142C53.8415 43.3911 54.0569 43.2135 54.2227 42.9815C54.3884 42.7495 54.4712 42.4678 54.4712 42.1364V41.2273C54.3671 41.2699 54.2558 41.3101 54.1374 41.348C54.0238 41.3859 53.9007 41.4214 53.7681 41.4545C53.6403 41.4877 53.503 41.5185 53.3562 41.5469C53.2141 41.5753 53.065 41.6013 52.9087 41.625C52.6057 41.6723 52.3571 41.7505 52.163 41.8594C51.9736 41.9635 51.8316 42.0938 51.7369 42.25C51.6469 42.4015 51.6019 42.572 51.6019 42.7614C51.6019 43.0644 51.7085 43.2964 51.9215 43.4574C52.1346 43.6184 52.4068 43.6989 52.7383 43.6989ZM60.2365 46V35.0909H64.0433V37.1648H64.157C64.3558 36.3977 64.6707 35.8366 65.1016 35.4815C65.5372 35.1264 66.0462 34.9489 66.6286 34.9489C66.799 34.9489 66.9671 34.9631 67.1328 34.9915C67.3033 35.0152 67.4666 35.0507 67.6229 35.098V38.4432C67.4287 38.3769 67.1896 38.3272 66.9055 38.294C66.6214 38.2609 66.3776 38.2443 66.174 38.2443C65.7905 38.2443 65.4448 38.3319 65.1371 38.5071C64.834 38.6776 64.5949 38.919 64.4197 39.2315C64.2446 39.5393 64.157 39.9015 64.157 40.3182V46H60.2365ZM78.88 38.642H75.272C75.2531 38.4195 75.175 38.2277 75.0376 38.0668C74.9003 37.9058 74.7228 37.7827 74.505 37.6974C74.2919 37.6075 74.0552 37.5625 73.7947 37.5625C73.4586 37.5625 73.1697 37.6241 72.9283 37.7472C72.6868 37.8703 72.5684 38.0455 72.5732 38.2727C72.5684 38.4337 72.6371 38.5829 72.7791 38.7202C72.9259 38.8575 73.2076 38.964 73.6243 39.0398L75.8402 39.4375C76.9576 39.6411 77.7886 39.9844 78.3331 40.4673C78.8823 40.9455 79.1593 41.5871 79.1641 42.392C79.1593 43.1686 78.9273 43.8433 78.468 44.4162C78.0135 44.9844 77.3909 45.4247 76.6001 45.7372C75.8142 46.045 74.9169 46.1989 73.9084 46.1989C72.2417 46.1989 70.9373 45.858 69.995 45.1761C69.0575 44.4943 68.5343 43.5947 68.4254 42.4773H72.3175C72.3696 42.8229 72.54 43.0904 72.8288 43.2798C73.1224 43.4645 73.4917 43.5568 73.9368 43.5568C74.2966 43.5568 74.5926 43.4953 74.8246 43.3722C75.0613 43.2491 75.1821 43.0739 75.1868 42.8466C75.1821 42.6383 75.0779 42.4725 74.8743 42.3494C74.6754 42.2263 74.3629 42.1269 73.9368 42.0511L72.005 41.7102C70.8923 41.5161 70.0589 41.1468 69.505 40.6023C68.951 40.0578 68.6764 39.357 68.6811 38.5C68.6764 37.7424 68.8752 37.1009 69.2777 36.5753C69.6849 36.045 70.2649 35.6425 71.0178 35.3679C71.7753 35.0885 72.6726 34.9489 73.7095 34.9489C75.2862 34.9489 76.5291 35.2756 77.4382 35.929C78.352 36.5824 78.8326 37.4867 78.88 38.642ZM84.5938 46V31.4545H95.0767V34.6364H88.5426V37.1364H94.5369V40.3182H88.5426V42.8182H95.0483V46H84.5938ZM100.132 46.1705C99.4357 46.1705 98.8202 46.0568 98.2852 45.8295C97.7549 45.5975 97.3382 45.2472 97.0352 44.7784C96.7321 44.3097 96.5806 43.7131 96.5806 42.9886C96.5806 42.392 96.6824 41.883 96.886 41.4616C97.0896 41.0355 97.3737 40.6875 97.7383 40.4176C98.1029 40.1477 98.5266 39.9418 99.0096 39.7997C99.4973 39.6577 100.023 39.5653 100.586 39.5227C101.197 39.4754 101.687 39.4186 102.056 39.3523C102.431 39.2812 102.7 39.1842 102.866 39.0611C103.032 38.9332 103.115 38.7652 103.115 38.5568V38.5284C103.115 38.2443 103.006 38.0265 102.788 37.875C102.57 37.7235 102.291 37.6477 101.95 37.6477C101.576 37.6477 101.27 37.7306 101.034 37.8963C100.802 38.0573 100.662 38.3059 100.615 38.642H97.0067C97.0541 37.9792 97.2648 37.3684 97.6388 36.8097C98.0176 36.2462 98.5692 35.7964 99.2937 35.4602C100.018 35.1193 100.922 34.9489 102.007 34.9489C102.788 34.9489 103.489 35.0412 104.109 35.2259C104.729 35.4058 105.257 35.6591 105.693 35.9858C106.128 36.3078 106.46 36.6866 106.687 37.1222C106.919 37.553 107.035 38.0218 107.035 38.5284V46H103.37V44.4659H103.285C103.067 44.8731 102.802 45.2022 102.49 45.4531C102.182 45.7041 101.829 45.8864 101.431 46C101.038 46.1136 100.605 46.1705 100.132 46.1705ZM101.41 43.6989C101.708 43.6989 101.988 43.6373 102.248 43.5142C102.513 43.3911 102.729 43.2135 102.895 42.9815C103.06 42.7495 103.143 42.4678 103.143 42.1364V41.2273C103.039 41.2699 102.928 41.3101 102.809 41.348C102.696 41.3859 102.573 41.4214 102.44 41.4545C102.312 41.4877 102.175 41.5185 102.028 41.5469C101.886 41.5753 101.737 41.6013 101.581 41.625C101.278 41.6723 101.029 41.7505 100.835 41.8594C100.645 41.9635 100.503 42.0938 100.409 42.25C100.319 42.4015 100.274 42.572 100.274 42.7614C100.274 43.0644 100.38 43.2964 100.593 43.4574C100.806 43.6184 101.079 43.6989 101.41 43.6989ZM108.908 46V35.0909H112.715V37.1648H112.829C113.028 36.3977 113.343 35.8366 113.773 35.4815C114.209 35.1264 114.718 34.9489 115.3 34.9489C115.471 34.9489 115.639 34.9631 115.805 34.9915C115.975 35.0152 116.138 35.0507 116.295 35.098V38.4432C116.101 38.3769 115.862 38.3272 115.577 38.294C115.293 38.2609 115.049 38.2443 114.846 38.2443C114.462 38.2443 114.117 38.3319 113.809 38.5071C113.506 38.6776 113.267 38.919 113.092 39.2315C112.916 39.5393 112.829 39.9015 112.829 40.3182V46H108.908ZM121.501 39.8636V46H117.58V35.0909H121.302V37.1648H121.415C121.652 36.4735 122.069 35.9313 122.665 35.5384C123.267 35.1454 123.968 34.9489 124.768 34.9489C125.54 34.9489 126.21 35.1264 126.778 35.4815C127.351 35.8319 127.793 36.3149 128.106 36.9304C128.423 37.5459 128.579 38.2491 128.575 39.0398V46H124.654V39.8636C124.659 39.3239 124.522 38.9001 124.242 38.5923C123.968 38.2846 123.584 38.1307 123.092 38.1307C122.77 38.1307 122.488 38.2017 122.246 38.3438C122.01 38.4811 121.827 38.6799 121.7 38.9403C121.572 39.196 121.505 39.5038 121.501 39.8636ZM135.737 46.1989C134.572 46.1989 133.569 45.9763 132.726 45.5312C131.888 45.0814 131.241 44.4375 130.787 43.5994C130.337 42.7566 130.112 41.7481 130.112 40.5739C130.112 39.447 130.339 38.4621 130.794 37.6193C131.249 36.7765 131.89 36.1207 132.719 35.652C133.547 35.1832 134.525 34.9489 135.652 34.9489C136.476 34.9489 137.222 35.0767 137.889 35.3324C138.557 35.5881 139.127 35.9598 139.601 36.4474C140.074 36.9304 140.439 37.5175 140.695 38.2088C140.95 38.9001 141.078 39.679 141.078 40.5455V41.4545H131.334V39.2955H137.47C137.465 38.983 137.385 38.7083 137.229 38.4716C137.077 38.2301 136.871 38.0431 136.611 37.9105C136.355 37.7732 136.064 37.7045 135.737 37.7045C135.42 37.7045 135.129 37.7732 134.864 37.9105C134.598 38.0431 134.385 38.2277 134.224 38.4645C134.068 38.7012 133.985 38.9782 133.976 39.2955V41.625C133.976 41.9754 134.049 42.2879 134.196 42.5625C134.343 42.8371 134.554 43.0526 134.828 43.2088C135.103 43.3651 135.434 43.4432 135.822 43.4432C136.092 43.4432 136.339 43.4053 136.561 43.3295C136.788 43.2538 136.982 43.1449 137.143 43.0028C137.304 42.8561 137.423 42.6809 137.499 42.4773H141.078C140.955 43.2348 140.664 43.893 140.205 44.4517C139.745 45.0057 139.137 45.4366 138.379 45.7443C137.626 46.0473 136.746 46.1989 135.737 46.1989ZM146.627 46.142C145.85 46.142 145.135 45.9384 144.482 45.5312C143.833 45.1241 143.312 44.5062 142.919 43.6776C142.531 42.849 142.337 41.8049 142.337 40.5455C142.337 39.2292 142.541 38.1591 142.948 37.3352C143.36 36.5114 143.89 35.9077 144.539 35.5241C145.192 35.1406 145.879 34.9489 146.598 34.9489C147.138 34.9489 147.612 35.0436 148.019 35.233C148.426 35.4176 148.767 35.6662 149.042 35.9787C149.316 36.2865 149.525 36.625 149.667 36.9943H149.723V31.4545H153.644V46H149.752V44.2102H149.667C149.515 44.5795 149.297 44.911 149.013 45.2045C148.734 45.4934 148.393 45.723 147.99 45.8935C147.593 46.0592 147.138 46.142 146.627 46.142ZM148.076 43.1307C148.435 43.1307 148.743 43.0265 148.999 42.8182C149.259 42.6051 149.458 42.3068 149.596 41.9233C149.738 41.535 149.809 41.0758 149.809 40.5455C149.809 40.0057 149.738 39.544 149.596 39.1605C149.458 38.7723 149.259 38.4763 148.999 38.2727C148.743 38.0644 148.435 37.9602 148.076 37.9602C147.716 37.9602 147.408 38.0644 147.152 38.2727C146.901 38.4763 146.707 38.7723 146.57 39.1605C146.437 39.544 146.371 40.0057 146.371 40.5455C146.371 41.0852 146.437 41.5492 146.57 41.9375C146.707 42.321 146.901 42.617 147.152 42.8253C147.408 43.0289 147.716 43.1307 148.076 43.1307Z" fill="white"/>
<path d="M30.9574 64.9176C30.233 64.9176 29.5926 64.8182 29.0362 64.6193C28.4799 64.4228 28.0123 64.1328 27.6335 63.7493C27.2547 63.3658 26.9683 62.8958 26.7741 62.3395C26.58 61.7831 26.483 61.1463 26.483 60.429C26.483 59.7353 26.5812 59.1151 26.7777 58.5682C26.9766 58.0213 27.2642 57.5573 27.6406 57.1761C28.0194 56.7926 28.4787 56.5002 29.0185 56.299C29.5606 56.0978 30.1738 55.9972 30.858 55.9972C31.5232 55.9972 32.1056 56.1061 32.6051 56.3239C33.107 56.5393 33.526 56.8317 33.8622 57.201C34.2008 57.5679 34.4541 57.9811 34.6222 58.4403C34.7926 58.8996 34.8778 59.3731 34.8778 59.8608C34.8778 60.2041 34.8613 60.5521 34.8281 60.9048C34.795 61.2576 34.7251 61.5819 34.6186 61.8778C34.5121 62.1714 34.3475 62.4081 34.125 62.5881C33.9048 62.768 33.6065 62.858 33.2301 62.858C33.0644 62.858 32.8821 62.8319 32.6832 62.7798C32.4844 62.7277 32.308 62.6413 32.1541 62.5206C32.0002 62.3999 31.9091 62.2377 31.8807 62.0341H31.8381C31.7813 62.1714 31.6937 62.3016 31.5753 62.4247C31.4593 62.5478 31.3066 62.6461 31.1172 62.7195C30.9302 62.7929 30.7017 62.8248 30.4318 62.8153C30.1241 62.8035 29.853 62.7348 29.6186 62.6094C29.3842 62.4815 29.1877 62.3087 29.0291 62.0909C28.8729 61.8707 28.7545 61.6162 28.674 61.3274C28.5959 61.0362 28.5568 60.7225 28.5568 60.3864C28.5568 60.0668 28.6042 59.7744 28.6989 59.5092C28.7936 59.2441 28.925 59.0121 29.093 58.8132C29.2635 58.6143 29.4624 58.4557 29.6896 58.3374C29.9193 58.2166 30.1667 58.142 30.4318 58.1136C30.6686 58.09 30.884 58.1006 31.0781 58.1456C31.2723 58.1882 31.4321 58.2533 31.5575 58.3409C31.683 58.4261 31.7623 58.5208 31.7955 58.625H31.8381V58.2273H32.5909V61.4375C32.5909 61.6364 32.6465 61.8116 32.7578 61.9631C32.8691 62.1146 33.0313 62.1903 33.2443 62.1903C33.4858 62.1903 33.6705 62.1075 33.7983 61.9418C33.9285 61.776 34.0173 61.5204 34.0646 61.1747C34.1143 60.8291 34.1392 60.3864 34.1392 59.8466C34.1392 59.5294 34.0954 59.2169 34.0078 58.9091C33.9226 58.599 33.7924 58.3089 33.6172 58.0391C33.4444 57.7692 33.2254 57.5312 32.9602 57.3253C32.6951 57.1193 32.3838 56.9583 32.0263 56.8423C31.6712 56.724 31.2675 56.6648 30.8153 56.6648C30.259 56.6648 29.7607 56.7512 29.3203 56.924C28.8823 57.0945 28.5095 57.3442 28.2017 57.6733C27.8963 58 27.6631 58.3977 27.5021 58.8665C27.3435 59.3329 27.2642 59.8632 27.2642 60.4574C27.2642 61.0611 27.3435 61.5973 27.5021 62.0661C27.6631 62.5348 27.8999 62.9302 28.2124 63.2521C28.5272 63.5741 28.9167 63.8179 29.3807 63.9837C29.8447 64.1518 30.3797 64.2358 30.9858 64.2358C31.2462 64.2358 31.5031 64.2109 31.7564 64.1612C32.0097 64.1115 32.2334 64.0571 32.4276 63.9979C32.6217 63.9387 32.7614 63.8949 32.8466 63.8665L33.0455 64.5199C32.8987 64.5814 32.7069 64.643 32.4702 64.7045C32.2358 64.7661 31.9848 64.817 31.7173 64.8572C31.4522 64.8975 31.1989 64.9176 30.9574 64.9176ZM30.5455 62.0909C30.8627 62.0909 31.1196 62.027 31.3161 61.8991C31.5125 61.7713 31.6558 61.5784 31.7457 61.3203C31.8357 61.0623 31.8807 60.7367 31.8807 60.3438C31.8807 59.946 31.831 59.6359 31.7315 59.4134C31.6321 59.1908 31.4853 59.0346 31.2912 58.9446C31.0971 58.8546 30.858 58.8097 30.5739 58.8097C30.304 58.8097 30.0732 58.8807 29.8814 59.0227C29.692 59.1624 29.5464 59.3494 29.4446 59.5838C29.3452 59.8158 29.2955 60.0691 29.2955 60.3438C29.2955 60.6468 29.3357 60.9321 29.4162 61.1996C29.4967 61.4647 29.6281 61.6802 29.8104 61.8459C29.9927 62.0092 30.2377 62.0909 30.5455 62.0909ZM36.9703 59.7188V63H36.1323V55.7273H36.9703V58.3977H37.0414C37.1692 58.116 37.361 57.8923 37.6167 57.7266C37.8747 57.5585 38.218 57.4744 38.6465 57.4744C39.0182 57.4744 39.3437 57.549 39.623 57.6982C39.9024 57.8449 40.119 58.071 40.2729 58.3764C40.4292 58.6795 40.5073 59.0653 40.5073 59.5341V63H39.6692V59.5909C39.6692 59.1577 39.5568 58.8227 39.3319 58.5859C39.1093 58.3468 38.8004 58.2273 38.405 58.2273C38.1304 58.2273 37.8842 58.2853 37.6664 58.4013C37.4509 58.5173 37.2805 58.6866 37.155 58.9091C37.0319 59.1316 36.9703 59.4015 36.9703 59.7188ZM43.6456 63.1278C43.3 63.1278 42.9863 63.0627 42.7045 62.9325C42.4228 62.8 42.1991 62.6094 42.0334 62.3608C41.8677 62.1098 41.7848 61.8068 41.7848 61.4517C41.7848 61.1392 41.8464 60.8859 41.9695 60.6918C42.0926 60.4953 42.2571 60.3414 42.4631 60.2301C42.669 60.1188 42.8963 60.036 43.1449 59.9815C43.3958 59.9247 43.648 59.8797 43.9013 59.8466C44.2327 59.804 44.5014 59.772 44.7074 59.7507C44.9157 59.727 45.0672 59.688 45.1619 59.6335C45.259 59.5791 45.3075 59.4844 45.3075 59.3494V59.321C45.3075 58.9706 45.2116 58.6984 45.0199 58.5043C44.8305 58.3101 44.5429 58.2131 44.157 58.2131C43.7569 58.2131 43.4432 58.3007 43.2159 58.4759C42.9886 58.651 42.8288 58.8381 42.7365 59.0369L41.9411 58.7528C42.0831 58.4214 42.2725 58.1634 42.5092 57.9787C42.7483 57.7917 43.0088 57.6615 43.2905 57.5881C43.5746 57.5123 43.8539 57.4744 44.1286 57.4744C44.3037 57.4744 44.505 57.4957 44.7322 57.5384C44.9619 57.5786 45.1832 57.6626 45.3963 57.7905C45.6117 57.9183 45.7905 58.1113 45.9325 58.3693C46.0746 58.6274 46.1456 58.973 46.1456 59.4062V63H45.3075V62.2614H45.2649C45.2081 62.3797 45.1134 62.5064 44.9808 62.6413C44.8482 62.7763 44.6719 62.8911 44.4517 62.9858C44.2315 63.0805 43.9628 63.1278 43.6456 63.1278ZM43.7734 62.375C44.1049 62.375 44.3842 62.3099 44.6115 62.1797C44.8411 62.0495 45.014 61.8814 45.13 61.6754C45.2483 61.4695 45.3075 61.2528 45.3075 61.0256V60.2585C45.272 60.3011 45.1939 60.3402 45.0732 60.3757C44.9548 60.4089 44.8175 60.4384 44.6612 60.4645C44.5073 60.4882 44.357 60.5095 44.2102 60.5284C44.0658 60.545 43.9486 60.5592 43.8587 60.571C43.6409 60.5994 43.4373 60.6456 43.2479 60.7095C43.0608 60.7711 42.9093 60.8646 42.7933 60.9901C42.6797 61.1132 42.6229 61.2812 42.6229 61.4943C42.6229 61.7855 42.7306 62.0057 42.946 62.1548C43.1638 62.3016 43.4396 62.375 43.7734 62.375ZM47.6752 65.0455V57.5455H48.4849V58.4119H48.5843C48.6459 58.3172 48.7311 58.1965 48.84 58.0497C48.9513 57.9006 49.1099 57.768 49.3159 57.652C49.5242 57.5336 49.8059 57.4744 50.161 57.4744C50.6203 57.4744 51.0252 57.5893 51.3755 57.8189C51.7259 58.0485 51.9993 58.3741 52.1958 58.7955C52.3923 59.2169 52.4906 59.714 52.4906 60.2869C52.4906 60.8646 52.3923 61.3653 52.1958 61.7891C51.9993 62.2105 51.7271 62.5372 51.3791 62.7692C51.0311 62.9988 50.6298 63.1136 50.1752 63.1136C49.8249 63.1136 49.5443 63.0556 49.3336 62.9396C49.1229 62.8213 48.9608 62.6875 48.8471 62.5384C48.7335 62.3868 48.6459 62.2614 48.5843 62.1619H48.5133V65.0455H47.6752ZM48.4991 60.2727C48.4991 60.6847 48.5595 61.0481 48.6802 61.3629C48.801 61.6754 48.9773 61.9205 49.2093 62.098C49.4413 62.2732 49.7254 62.3608 50.0616 62.3608C50.412 62.3608 50.7044 62.2685 50.9387 62.0838C51.1755 61.8968 51.353 61.6458 51.4714 61.331C51.5922 61.0137 51.6525 60.661 51.6525 60.2727C51.6525 59.8892 51.5933 59.5436 51.475 59.2358C51.359 58.9257 51.1826 58.6806 50.9458 58.5007C50.7115 58.3184 50.4167 58.2273 50.0616 58.2273C49.7207 58.2273 49.4342 58.3137 49.2022 58.4865C48.9702 58.657 48.795 58.8961 48.6767 59.2038C48.5583 59.5092 48.4991 59.8655 48.4991 60.2727ZM53.769 65.0455V57.5455H54.5787V58.4119H54.6781C54.7396 58.3172 54.8249 58.1965 54.9338 58.0497C55.045 57.9006 55.2037 57.768 55.4096 57.652C55.618 57.5336 55.8997 57.4744 56.2548 57.4744C56.7141 57.4744 57.1189 57.5893 57.4693 57.8189C57.8197 58.0485 58.0931 58.3741 58.2896 58.7955C58.4861 59.2169 58.5843 59.714 58.5843 60.2869C58.5843 60.8646 58.4861 61.3653 58.2896 61.7891C58.0931 62.2105 57.8208 62.5372 57.4728 62.7692C57.1248 62.9988 56.7235 63.1136 56.269 63.1136C55.9186 63.1136 55.6381 63.0556 55.4274 62.9396C55.2167 62.8213 55.0545 62.6875 54.9409 62.5384C54.8272 62.3868 54.7396 62.2614 54.6781 62.1619H54.6071V65.0455H53.769ZM54.5929 60.2727C54.5929 60.6847 54.6532 61.0481 54.774 61.3629C54.8947 61.6754 55.0711 61.9205 55.3031 62.098C55.5351 62.2732 55.8192 62.3608 56.1554 62.3608C56.5057 62.3608 56.7981 62.2685 57.0325 62.0838C57.2692 61.8968 57.4468 61.6458 57.5652 61.331C57.6859 61.0137 57.7463 60.661 57.7463 60.2727C57.7463 59.8892 57.6871 59.5436 57.5687 59.2358C57.4527 58.9257 57.2763 58.6806 57.0396 58.5007C56.8052 58.3184 56.5105 58.2273 56.1554 58.2273C55.8145 58.2273 55.528 58.3137 55.296 58.4865C55.064 58.657 54.8888 58.8961 54.7704 59.2038C54.652 59.5092 54.5929 59.8655 54.5929 60.2727ZM62.1497 63.1136C61.6241 63.1136 61.1708 62.9976 60.7896 62.7656C60.4108 62.5312 60.1184 62.2045 59.9125 61.7855C59.7089 61.3641 59.6071 60.8741 59.6071 60.3153C59.6071 59.7566 59.7089 59.2642 59.9125 58.8381C60.1184 58.4096 60.4049 58.0758 60.7718 57.8366C61.1412 57.5952 61.572 57.4744 62.0645 57.4744C62.3485 57.4744 62.6291 57.5218 62.9061 57.6165C63.1831 57.7112 63.4352 57.8651 63.6625 58.0781C63.8897 58.2888 64.0708 58.5682 64.2058 58.9162C64.3407 59.2642 64.4082 59.6927 64.4082 60.2017V60.5568H60.2037V59.8324H63.5559C63.5559 59.5246 63.4944 59.25 63.3713 59.0085C63.2505 58.767 63.0777 58.5765 62.8528 58.4368C62.6303 58.2971 62.3675 58.2273 62.0645 58.2273C61.7306 58.2273 61.4418 58.3101 61.198 58.4759C60.9565 58.6392 60.7707 58.8523 60.6404 59.1151C60.5102 59.3778 60.4451 59.6596 60.4451 59.9602V60.4432C60.4451 60.8551 60.5162 61.2043 60.6582 61.4908C60.8026 61.7749 61.0027 61.9915 61.2583 62.1406C61.514 62.2874 61.8111 62.3608 62.1497 62.3608C62.3699 62.3608 62.5687 62.33 62.7463 62.2685C62.9262 62.2045 63.0813 62.1098 63.2115 61.9844C63.3417 61.8565 63.4423 61.6979 63.5133 61.5085L64.323 61.7358C64.2377 62.0104 64.0945 62.2519 63.8933 62.4602C63.6921 62.6662 63.4435 62.8272 63.1475 62.9432C62.8516 63.0568 62.519 63.1136 62.1497 63.1136ZM65.6831 63V57.5455H66.4927V58.3693H66.5495C66.649 58.0994 66.8289 57.8804 67.0893 57.7124C67.3497 57.5443 67.6433 57.4602 67.97 57.4602C68.0315 57.4602 68.1085 57.4614 68.2008 57.4638C68.2931 57.4661 68.363 57.4697 68.4103 57.4744V58.3267C68.3819 58.3196 68.3168 58.3089 68.215 58.2947C68.1156 58.2782 68.0102 58.2699 67.899 58.2699C67.6338 58.2699 67.3971 58.3255 67.1887 58.4368C66.9828 58.5457 66.8194 58.6972 66.6987 58.8913C66.5803 59.0831 66.5211 59.3021 66.5211 59.5483V63H65.6831ZM71.8043 63.0994C71.506 63.0947 71.2077 63.0379 70.9094 62.929C70.6112 62.8201 70.3389 62.6366 70.0927 62.3786C69.8465 62.1181 69.6488 61.7666 69.4996 61.3239C69.3505 60.8788 69.2759 60.3201 69.2759 59.6477C69.2759 59.0038 69.3363 58.4332 69.457 57.9361C69.5778 57.4366 69.753 57.0163 69.9826 56.6754C70.2122 56.3321 70.4892 56.0717 70.8136 55.8942C71.1403 55.7166 71.5084 55.6278 71.918 55.6278C72.3252 55.6278 72.6874 55.7095 73.0046 55.8729C73.3242 56.0339 73.5846 56.2588 73.7859 56.5476C73.9871 56.8364 74.1173 57.169 74.1765 57.5455H73.31C73.2295 57.2187 73.0733 56.9477 72.8413 56.7322C72.6093 56.5168 72.3015 56.4091 71.918 56.4091C71.3545 56.4091 70.9106 56.6541 70.5863 57.1442C70.2643 57.6342 70.1022 58.322 70.0998 59.2074H70.1566C70.2892 59.0062 70.4466 58.8345 70.6289 58.6925C70.8136 58.5481 71.0172 58.4368 71.2397 58.3587C71.4622 58.2805 71.6978 58.2415 71.9464 58.2415C72.363 58.2415 72.7442 58.3456 73.0898 58.554C73.4355 58.7599 73.7125 59.0452 73.9208 59.4098C74.1291 59.772 74.2333 60.1875 74.2333 60.6562C74.2333 61.1061 74.1327 61.518 73.9315 61.892C73.7302 62.2637 73.4473 62.5597 73.0827 62.7798C72.7205 62.9976 72.2944 63.1042 71.8043 63.0994ZM71.8043 62.3182C72.1026 62.3182 72.3701 62.2436 72.6069 62.0945C72.846 61.9453 73.0342 61.7453 73.1715 61.4943C73.3112 61.2434 73.381 60.964 73.381 60.6562C73.381 60.3556 73.3136 60.0821 73.1786 59.8359C73.046 59.5874 72.8626 59.3897 72.6282 59.2429C72.3962 59.0961 72.131 59.0227 71.8327 59.0227C71.6078 59.0227 71.3983 59.0677 71.2042 59.1577C71.0101 59.2453 70.8396 59.366 70.6928 59.5199C70.5484 59.6738 70.4348 59.8501 70.3519 60.049C70.2691 60.2455 70.2276 60.4527 70.2276 60.6705C70.2276 60.9593 70.2951 61.2292 70.43 61.4801C70.5674 61.7311 70.7544 61.9335 70.9911 62.0874C71.2302 62.2412 71.5013 62.3182 71.8043 62.3182ZM75.4593 61.5085V60.7841L78.6554 55.7273H79.1809V56.8494H78.8258L76.411 60.6705V60.7273H80.715V61.5085H75.4593ZM78.8826 63V61.2884V60.951V55.7273H79.7207V63H78.8826ZM82.1737 63V55.7273H83.0117V58.4119H83.0827C83.1443 58.3172 83.2295 58.1965 83.3384 58.0497C83.4497 57.9006 83.6083 57.768 83.8143 57.652C84.0226 57.5336 84.3043 57.4744 84.6594 57.4744C85.1187 57.4744 85.5236 57.5893 85.8739 57.8189C86.2243 58.0485 86.4978 58.3741 86.6942 58.7955C86.8907 59.2169 86.989 59.714 86.989 60.2869C86.989 60.8646 86.8907 61.3653 86.6942 61.7891C86.4978 62.2105 86.2255 62.5372 85.8775 62.7692C85.5295 62.9988 85.1282 63.1136 84.6737 63.1136C84.3233 63.1136 84.0427 63.0556 83.832 62.9396C83.6213 62.8213 83.4592 62.6875 83.3455 62.5384C83.2319 62.3868 83.1443 62.2614 83.0827 62.1619H82.9833V63H82.1737ZM82.9975 60.2727C82.9975 60.6847 83.0579 61.0481 83.1786 61.3629C83.2994 61.6754 83.4757 61.9205 83.7077 62.098C83.9397 62.2732 84.2238 62.3608 84.56 62.3608C84.9104 62.3608 85.2028 62.2685 85.4371 62.0838C85.6739 61.8968 85.8514 61.6458 85.9698 61.331C86.0906 61.0137 86.1509 60.661 86.1509 60.2727C86.1509 59.8892 86.0917 59.5436 85.9734 59.2358C85.8574 58.9257 85.681 58.6806 85.4442 58.5007C85.2099 58.3184 84.9151 58.2273 84.56 58.2273C84.2191 58.2273 83.9326 58.3137 83.7006 58.4865C83.4686 58.657 83.2934 58.8961 83.1751 59.2038C83.0567 59.5092 82.9975 59.8655 82.9975 60.2727ZM88.271 63V57.5455H89.109V63H88.271ZM88.6971 56.6364C88.5337 56.6364 88.3929 56.5807 88.2745 56.4695C88.1585 56.3582 88.1005 56.2244 88.1005 56.0682C88.1005 55.9119 88.1585 55.7782 88.2745 55.6669C88.3929 55.5556 88.5337 55.5 88.6971 55.5C88.8604 55.5 89.0001 55.5556 89.1161 55.6669C89.2345 55.7782 89.2937 55.9119 89.2937 56.0682C89.2937 56.2244 89.2345 56.3582 89.1161 56.4695C89.0001 56.5807 88.8604 56.6364 88.6971 56.6364ZM93.0162 57.5455V58.2557H90.1895V57.5455H93.0162ZM91.0133 56.2386H91.8514V61.4375C91.8514 61.6742 91.8857 61.8518 91.9544 61.9702C92.0254 62.0862 92.1154 62.1643 92.2243 62.2045C92.3355 62.2424 92.4527 62.2614 92.5758 62.2614C92.6681 62.2614 92.7439 62.2566 92.8031 62.2472C92.8623 62.2353 92.9096 62.2259 92.9451 62.2188L93.1156 62.9716C93.0588 62.9929 92.9795 63.0142 92.8777 63.0355C92.7759 63.0592 92.6468 63.071 92.4906 63.071C92.2538 63.071 92.0218 63.0201 91.7946 62.9183C91.5697 62.8165 91.3826 62.6615 91.2335 62.4531C91.0867 62.2448 91.0133 61.982 91.0133 61.6648V56.2386Z" fill="white"/>
<path d="M44.017 114.091V149H36.6364V121.097H36.4318L28.4375 126.108V119.562L37.0795 114.091H44.017ZM52.3139 149V143.682L64.7401 132.176C65.7969 131.153 66.6832 130.233 67.3991 129.415C68.1264 128.597 68.6776 127.795 69.0526 127.011C69.4276 126.216 69.6151 125.358 69.6151 124.438C69.6151 123.415 69.3821 122.534 68.9162 121.795C68.4503 121.045 67.8139 120.472 67.0071 120.074C66.2003 119.665 65.2855 119.46 64.2628 119.46C63.1946 119.46 62.2628 119.676 61.4673 120.108C60.6719 120.54 60.0582 121.159 59.6264 121.966C59.1946 122.773 58.9787 123.733 58.9787 124.847H51.973C51.973 122.562 52.4901 120.58 53.5241 118.898C54.5582 117.216 56.0071 115.915 57.8707 114.994C59.7344 114.074 61.8821 113.614 64.3139 113.614C66.8139 113.614 68.9901 114.057 70.8423 114.943C72.706 115.818 74.1548 117.034 75.1889 118.591C76.223 120.148 76.7401 121.932 76.7401 123.943C76.7401 125.261 76.4787 126.562 75.956 127.847C75.4446 129.131 74.5298 130.557 73.2116 132.125C71.8935 133.682 70.0355 135.551 67.6378 137.733L62.5412 142.727V142.966H77.2003V149H52.3139ZM89.196 141.466L89.2131 132.756H90.2699L98.6562 122.818H106.991L95.7244 135.977H94.0028L89.196 141.466ZM82.6165 149V114.091H89.8778V149H82.6165ZM98.9801 149L91.2756 137.597L96.1165 132.466L107.486 149H98.9801Z" fill="white"/>
<defs>
<linearGradient id="paint0_linear_57_11" x1="240" y1="131.5" x2="50.5" y2="316.5" gradientUnits="userSpaceOnUse">
<stop/>
<stop offset="1" stop-color="#1A1A1A"/>
</linearGradient>
</defs>
</svg>
