<svg xmlns="http://www.w3.org/2000/svg" width="$size" height="$size" viewBox="0 0 250 250" fill="none">
  <g id="7cc39067">
    <rect id="3336a6c0" x="5" y="5" width="240" height="240" rx="20" fill="url(#41b10cd4)" $stroke />
    <text fill="white" font-size="58px" x="30" y="140" font-family="sans-serif" font-weight="700">
        $num
    </text>
    <g id="d7634b17">
      <rect id="e4f1a4ff" x="32" y="173" width="3" height="44" rx="1.5" fill="#78FF6D"/>
      <path id="32b52ab9" d="M53.021 191H51.578V186.762H47.574V191H46.131V181.718H47.574V185.566H51.578V181.718H53.021V191ZM57.806 183.863C58.3867 183.863 58.8893 183.993 59.314 184.253C59.7387 184.504 60.0637 184.868 60.289 185.345C60.523 185.822 60.64 186.385 60.64 187.035V187.789H56.233C56.2503 188.508 56.4237 189.059 56.753 189.44C57.0823 189.821 57.546 190.012 58.144 190.012C58.5687 190.012 58.9457 189.973 59.275 189.895C59.613 189.808 59.9553 189.683 60.302 189.518V190.662C59.9727 190.818 59.6347 190.935 59.288 191.013C58.95 191.091 58.5383 191.13 58.053 191.13C57.4203 191.13 56.857 190.996 56.363 190.727C55.869 190.458 55.4833 190.06 55.206 189.531C54.9287 188.994 54.79 188.335 54.79 187.555C54.79 186.766 54.9157 186.099 55.167 185.553C55.4183 185.007 55.7693 184.591 56.22 184.305C56.6793 184.01 57.208 183.863 57.806 183.863ZM57.806 184.929C57.364 184.929 57.0087 185.089 56.74 185.41C56.4713 185.731 56.3153 186.186 56.272 186.775H59.249C59.249 186.411 59.197 186.09 59.093 185.813C58.989 185.536 58.8287 185.319 58.612 185.163C58.404 185.007 58.1353 184.929 57.806 184.929ZM60.9964 183.993H62.5044L63.8434 187.971C63.9127 188.17 63.9734 188.365 64.0254 188.556C64.0861 188.747 64.1337 188.937 64.1684 189.128C64.2117 189.31 64.2464 189.492 64.2724 189.674H64.3114C64.3547 189.449 64.4154 189.184 64.4934 188.881C64.5714 188.569 64.6581 188.261 64.7534 187.958L66.0274 183.993H67.5484L64.7404 191.949C64.5757 192.4 64.3764 192.785 64.1424 193.106C63.9171 193.435 63.6397 193.687 63.3104 193.86C62.9897 194.033 62.6041 194.12 62.1534 194.12C61.9627 194.12 61.7894 194.107 61.6334 194.081C61.4861 194.064 61.3561 194.042 61.2434 194.016V192.924C61.3301 192.941 61.4384 192.959 61.5684 192.976C61.6984 192.993 61.8327 193.002 61.9714 193.002C62.2227 193.002 62.4394 192.95 62.6214 192.846C62.8034 192.742 62.9551 192.595 63.0764 192.404C63.1977 192.222 63.2974 192.005 63.3754 191.754L63.6354 191L60.9964 183.993ZM69.8089 188.244H68.6649L68.4179 181.718H70.0689L69.8089 188.244ZM68.3399 190.233C68.3399 189.895 68.4265 189.657 68.5999 189.518C68.7732 189.379 68.9855 189.31 69.2369 189.31C69.4709 189.31 69.6745 189.379 69.8479 189.518C70.0299 189.657 70.1209 189.895 70.1209 190.233C70.1209 190.571 70.0299 190.814 69.8479 190.961C69.6745 191.108 69.4709 191.182 69.2369 191.182C68.9855 191.182 68.7732 191.108 68.5999 190.961C68.4265 190.814 68.3399 190.571 68.3399 190.233ZM52.8 209H51.136L48.419 204.723L47.574 205.477V209H46.131V199.718H47.574V204.203C47.7733 203.934 47.977 203.67 48.185 203.41C48.393 203.15 48.601 202.89 48.809 202.63L51.084 199.718H52.722L49.446 203.774L52.8 209ZM56.4349 201.863C57.0156 201.863 57.5183 201.993 57.9429 202.253C58.3676 202.504 58.6926 202.868 58.9179 203.345C59.1519 203.822 59.2689 204.385 59.2689 205.035V205.789H54.8619C54.8793 206.508 55.0526 207.059 55.3819 207.44C55.7113 207.821 56.1749 208.012 56.7729 208.012C57.1976 208.012 57.5746 207.973 57.9039 207.895C58.2419 207.808 58.5843 207.683 58.9309 207.518V208.662C58.6016 208.818 58.2636 208.935 57.9169 209.013C57.5789 209.091 57.1673 209.13 56.6819 209.13C56.0493 209.13 55.4859 208.996 54.9919 208.727C54.4979 208.458 54.1123 208.06 53.8349 207.531C53.5576 206.994 53.4189 206.335 53.4189 205.555C53.4189 204.766 53.5446 204.099 53.7959 203.553C54.0473 203.007 54.3983 202.591 54.8489 202.305C55.3083 202.01 55.8369 201.863 56.4349 201.863ZM56.4349 202.929C55.9929 202.929 55.6376 203.089 55.3689 203.41C55.1003 203.731 54.9443 204.186 54.9009 204.775H57.8779C57.8779 204.411 57.8259 204.09 57.7219 203.813C57.6179 203.536 57.4576 203.319 57.2409 203.163C57.0329 203.007 56.7643 202.929 56.4349 202.929ZM63.4935 201.863C64.0742 201.863 64.5768 201.993 65.0015 202.253C65.4262 202.504 65.7512 202.868 65.9765 203.345C66.2105 203.822 66.3275 204.385 66.3275 205.035V205.789H61.9205C61.9378 206.508 62.1112 207.059 62.4405 207.44C62.7698 207.821 63.2335 208.012 63.8315 208.012C64.2562 208.012 64.6332 207.973 64.9625 207.895C65.3005 207.808 65.6428 207.683 65.9895 207.518V208.662C65.6602 208.818 65.3222 208.935 64.9755 209.013C64.6375 209.091 64.2258 209.13 63.7405 209.13C63.1078 209.13 62.5445 208.996 62.0505 208.727C61.5565 208.458 61.1708 208.06 60.8935 207.531C60.6162 206.994 60.4775 206.335 60.4775 205.555C60.4775 204.766 60.6032 204.099 60.8545 203.553C61.1058 203.007 61.4568 202.591 61.9075 202.305C62.3668 202.01 62.8955 201.863 63.4935 201.863ZM63.4935 202.929C63.0515 202.929 62.6962 203.089 62.4275 203.41C62.1588 203.731 62.0028 204.186 61.9595 204.775H64.9365C64.9365 204.411 64.8845 204.09 64.7805 203.813C64.6765 203.536 64.5162 203.319 64.2995 203.163C64.0915 203.007 63.8228 202.929 63.4935 202.929ZM71.2801 201.863C72.0688 201.863 72.7014 202.166 73.1781 202.773C73.6548 203.38 73.8931 204.285 73.8931 205.49C73.8931 206.279 73.7804 206.946 73.5551 207.492C73.3384 208.038 73.0308 208.45 72.6321 208.727C72.2334 208.996 71.7698 209.13 71.2411 209.13C70.9204 209.13 70.6344 209.087 70.3831 209C70.1318 208.905 69.9194 208.783 69.7461 208.636C69.5814 208.48 69.4341 208.315 69.3041 208.142H69.2261C69.2434 208.298 69.2608 208.484 69.2781 208.701C69.2954 208.909 69.3041 209.095 69.3041 209.26V212.12H67.9001V201.993H69.0441L69.2391 202.929H69.3041C69.4341 202.738 69.5858 202.561 69.7591 202.396C69.9411 202.231 70.1534 202.101 70.3961 202.006C70.6474 201.911 70.9421 201.863 71.2801 201.863ZM70.9031 202.994C70.5218 202.994 70.2141 203.081 69.9801 203.254C69.7461 203.419 69.5728 203.67 69.4601 204.008C69.3561 204.337 69.3041 204.758 69.3041 205.269V205.477C69.3041 206.014 69.3518 206.474 69.4471 206.855C69.5511 207.228 69.7201 207.514 69.9541 207.713C70.1968 207.904 70.5218 207.999 70.9291 207.999C71.2758 207.999 71.5618 207.895 71.7871 207.687C72.0124 207.47 72.1771 207.171 72.2811 206.79C72.3938 206.409 72.4501 205.967 72.4501 205.464C72.4501 204.701 72.3201 204.099 72.0601 203.657C71.8088 203.215 71.4231 202.994 70.9031 202.994ZM81.3954 209.13C80.7801 209.13 80.2384 209.004 79.7704 208.753C79.3111 208.502 78.9514 208.112 78.6914 207.583C78.4401 207.046 78.3144 206.365 78.3144 205.542C78.3144 204.675 78.4531 203.973 78.7304 203.436C79.0078 202.899 79.3848 202.504 79.8614 202.253C80.3381 201.993 80.8841 201.863 81.4994 201.863C81.8634 201.863 82.2101 201.906 82.5394 201.993C82.8774 202.071 83.1548 202.162 83.3714 202.266L82.9424 203.371C82.7258 203.284 82.4918 203.206 82.2404 203.137C81.9891 203.068 81.7508 203.033 81.5254 203.033C81.1268 203.033 80.7974 203.128 80.5374 203.319C80.2861 203.501 80.0954 203.778 79.9654 204.151C79.8354 204.515 79.7704 204.974 79.7704 205.529C79.7704 206.058 79.8354 206.504 79.9654 206.868C80.0954 207.232 80.2861 207.509 80.5374 207.7C80.7974 207.882 81.1094 207.973 81.4734 207.973C81.8288 207.973 82.1451 207.93 82.4224 207.843C82.7084 207.756 82.9728 207.644 83.2154 207.505V208.701C82.9728 208.848 82.7084 208.957 82.4224 209.026C82.1364 209.095 81.7941 209.13 81.3954 209.13ZM90.6231 205.49C90.6231 206.071 90.5494 206.586 90.4021 207.037C90.2548 207.488 90.0424 207.869 89.7651 208.181C89.4964 208.493 89.1671 208.731 88.7771 208.896C88.3871 209.052 87.9494 209.13 87.4641 209.13C87.0221 209.13 86.6104 209.052 86.2291 208.896C85.8478 208.731 85.5184 208.493 85.2411 208.181C84.9638 207.869 84.7471 207.488 84.5911 207.037C84.4438 206.586 84.3701 206.066 84.3701 205.477C84.3701 204.706 84.4958 204.051 84.7471 203.514C84.9984 202.977 85.3581 202.569 85.8261 202.292C86.3028 202.006 86.8661 201.863 87.5161 201.863C88.1228 201.863 88.6601 202.006 89.1281 202.292C89.5961 202.569 89.9601 202.977 90.2201 203.514C90.4888 204.051 90.6231 204.71 90.6231 205.49ZM85.8261 205.49C85.8261 206.01 85.8824 206.461 85.9951 206.842C86.1164 207.215 86.2984 207.501 86.5411 207.7C86.7924 207.899 87.1088 207.999 87.4901 207.999C87.8801 207.999 88.1964 207.899 88.4391 207.7C88.6904 207.501 88.8724 207.215 88.9851 206.842C89.1064 206.461 89.1671 206.01 89.1671 205.49C89.1671 204.953 89.1064 204.502 88.9851 204.138C88.8638 203.774 88.6818 203.497 88.4391 203.306C88.1964 203.107 87.8758 203.007 87.4771 203.007C86.8964 203.007 86.4761 203.224 86.2161 203.657C85.9561 204.09 85.8261 204.701 85.8261 205.49ZM94.4733 209.13C93.6933 209.13 93.0607 208.827 92.5753 208.22C92.0987 207.613 91.8603 206.712 91.8603 205.516C91.8603 204.311 92.103 203.401 92.5883 202.786C93.0737 202.171 93.7107 201.863 94.4993 201.863C94.8373 201.863 95.1277 201.911 95.3703 202.006C95.613 202.093 95.8253 202.214 96.0073 202.37C96.1893 202.526 96.341 202.699 96.4623 202.89H96.5403C96.523 202.769 96.5013 202.595 96.4753 202.37C96.458 202.136 96.4493 201.928 96.4493 201.746V199.12H97.8533V209H96.7483L96.5013 208.064H96.4493C96.328 208.263 96.1763 208.445 95.9943 208.61C95.8123 208.766 95.5957 208.892 95.3443 208.987C95.1017 209.082 94.8113 209.13 94.4733 209.13ZM94.8503 207.999C95.457 207.999 95.8817 207.813 96.1243 207.44C96.3757 207.059 96.5013 206.491 96.5013 205.737V205.529C96.5013 204.706 96.3843 204.077 96.1503 203.644C95.9163 203.211 95.4787 202.994 94.8373 202.994C94.3347 202.994 93.9533 203.224 93.6933 203.683C93.4333 204.134 93.3033 204.753 93.3033 205.542C93.3033 206.331 93.4333 206.937 93.6933 207.362C93.9533 207.787 94.339 207.999 94.8503 207.999ZM101.246 201.993V209H99.8288V201.993H101.246ZM100.557 199.328C100.765 199.328 100.947 199.389 101.103 199.51C101.259 199.631 101.337 199.835 101.337 200.121C101.337 200.398 101.259 200.602 101.103 200.732C100.947 200.853 100.765 200.914 100.557 200.914C100.331 200.914 100.141 200.853 99.9848 200.732C99.8288 200.602 99.7508 200.398 99.7508 200.121C99.7508 199.835 99.8288 199.631 99.9848 199.51C100.141 199.389 100.331 199.328 100.557 199.328ZM106.65 201.863C107.413 201.863 107.998 202.067 108.405 202.474C108.821 202.881 109.029 203.536 109.029 204.437V209H107.625V204.632C107.625 204.086 107.517 203.679 107.3 203.41C107.092 203.133 106.767 202.994 106.325 202.994C105.675 202.994 105.229 203.206 104.986 203.631C104.744 204.056 104.622 204.667 104.622 205.464V209H103.218V201.993H104.323L104.518 202.929H104.596C104.744 202.686 104.921 202.487 105.129 202.331C105.337 202.175 105.571 202.058 105.831 201.98C106.091 201.902 106.364 201.863 106.65 201.863ZM113.238 201.863C113.662 201.863 114.039 201.95 114.369 202.123C114.707 202.296 114.993 202.561 115.227 202.916H115.279L115.435 201.993H116.592V209.091C116.592 209.75 116.479 210.304 116.254 210.755C116.028 211.206 115.686 211.544 115.227 211.769C114.767 212.003 114.187 212.12 113.485 212.12C112.999 212.12 112.557 212.085 112.159 212.016C111.769 211.947 111.405 211.838 111.067 211.691V210.482C111.292 210.603 111.535 210.703 111.795 210.781C112.055 210.868 112.328 210.928 112.614 210.963C112.908 211.006 113.212 211.028 113.524 211.028C114.061 211.028 114.473 210.863 114.759 210.534C115.053 210.213 115.201 209.758 115.201 209.169V208.935C115.201 208.822 115.205 208.675 115.214 208.493C115.222 208.302 115.231 208.164 115.24 208.077H115.188C114.971 208.441 114.698 208.71 114.369 208.883C114.048 209.048 113.667 209.13 113.225 209.13C112.41 209.13 111.769 208.814 111.301 208.181C110.833 207.54 110.599 206.651 110.599 205.516C110.599 204.753 110.703 204.103 110.911 203.566C111.127 203.02 111.431 202.6 111.821 202.305C112.219 202.01 112.692 201.863 113.238 201.863ZM113.576 203.007C113.246 203.007 112.969 203.107 112.744 203.306C112.518 203.497 112.345 203.778 112.224 204.151C112.111 204.524 112.055 204.983 112.055 205.529C112.055 206.344 112.185 206.963 112.445 207.388C112.705 207.813 113.086 208.025 113.589 208.025C113.883 208.025 114.135 207.982 114.343 207.895C114.551 207.808 114.72 207.674 114.85 207.492C114.988 207.31 115.088 207.08 115.149 206.803C115.218 206.517 115.253 206.175 115.253 205.776V205.516C115.253 204.918 115.192 204.437 115.071 204.073C114.958 203.7 114.776 203.432 114.525 203.267C114.282 203.094 113.966 203.007 113.576 203.007ZM119.841 206.244H118.697L118.45 199.718H120.101L119.841 206.244ZM118.372 208.233C118.372 207.895 118.459 207.657 118.632 207.518C118.805 207.379 119.018 207.31 119.269 207.31C119.503 207.31 119.707 207.379 119.88 207.518C120.062 207.657 120.153 207.895 120.153 208.233C120.153 208.571 120.062 208.814 119.88 208.961C119.707 209.108 119.503 209.182 119.269 209.182C119.018 209.182 118.805 209.108 118.632 208.961C118.459 208.814 118.372 208.571 118.372 208.233Z" fill="white"/>
    </g>
    <path id="9c4fef5c" d="M42.04 58.18C42.04 59.0333 41.8333 59.76 41.42 60.36C41.0067 60.9467 40.4133 61.4 39.64 61.72C38.88 62.04 37.98 62.2 36.94 62.2C36.4067 62.2 35.8933 62.1733 35.4 62.12C34.92 62.0667 34.48 61.9933 34.08 61.9C33.68 61.7933 33.3267 61.6667 33.02 61.52V59.8C33.5 60.0133 34.0933 60.2067 34.8 60.38C35.52 60.5533 36.26 60.64 37.02 60.64C37.7267 60.64 38.32 60.5467 38.8 60.36C39.28 60.1733 39.64 59.9067 39.88 59.56C40.12 59.2133 40.24 58.8067 40.24 58.34C40.24 57.8733 40.14 57.48 39.94 57.16C39.74 56.84 39.3933 56.5467 38.9 56.28C38.42 56 37.7467 55.7067 36.88 55.4C36.2667 55.1733 35.7267 54.9333 35.26 54.68C34.8067 54.4133 34.4267 54.1133 34.12 53.78C33.8133 53.4467 33.58 53.0667 33.42 52.64C33.2733 52.2133 33.2 51.72 33.2 51.16C33.2 50.4 33.3933 49.7533 33.78 49.22C34.1667 48.6733 34.7 48.2533 35.38 47.96C36.0733 47.6667 36.8667 47.52 37.76 47.52C38.5467 47.52 39.2667 47.5933 39.92 47.74C40.5733 47.8867 41.1667 48.08 41.7 48.32L41.14 49.86C40.6467 49.6467 40.1067 49.4667 39.52 49.32C38.9467 49.1733 38.3467 49.1 37.72 49.1C37.12 49.1 36.62 49.1867 36.22 49.36C35.82 49.5333 35.52 49.78 35.32 50.1C35.12 50.4067 35.02 50.7667 35.02 51.18C35.02 51.66 35.12 52.06 35.32 52.38C35.52 52.7 35.8467 52.9867 36.3 53.24C36.7533 53.4933 37.3667 53.7667 38.14 54.06C38.98 54.3667 39.6867 54.7 40.26 55.06C40.8467 55.4067 41.2867 55.8267 41.58 56.32C41.8867 56.8133 42.04 57.4333 42.04 58.18ZM48.2566 60.76C48.5232 60.76 48.7966 60.74 49.0766 60.7C49.3566 60.6467 49.5832 60.5933 49.7566 60.54V61.88C49.5699 61.9733 49.3032 62.0467 48.9566 62.1C48.6099 62.1667 48.2766 62.2 47.9566 62.2C47.3966 62.2 46.8766 62.1067 46.3966 61.92C45.9299 61.72 45.5499 61.38 45.2566 60.9C44.9632 60.42 44.8166 59.7467 44.8166 58.88V52.64H43.2966V51.8L44.8366 51.1L45.5366 48.82H46.5766V51.28H49.6766V52.64H46.5766V58.84C46.5766 59.4933 46.7299 59.98 47.0366 60.3C47.3566 60.6067 47.7632 60.76 48.2566 60.76ZM56.0431 51.08C56.9631 51.08 57.7498 51.28 58.4031 51.68C59.0698 52.08 59.5765 52.6467 59.9231 53.38C60.2831 54.1 60.4631 54.9467 60.4631 55.92V56.98H53.1231C53.1498 58.1933 53.4565 59.12 54.0431 59.76C54.6431 60.3867 55.4765 60.7 56.5431 60.7C57.2231 60.7 57.8231 60.64 58.3431 60.52C58.8765 60.3867 59.4231 60.2 59.9831 59.96V61.5C59.4365 61.74 58.8965 61.9133 58.3631 62.02C57.8298 62.14 57.1965 62.2 56.4631 62.2C55.4498 62.2 54.5498 61.9933 53.7631 61.58C52.9898 61.1667 52.3831 60.5533 51.9431 59.74C51.5165 58.9133 51.3031 57.9067 51.3031 56.72C51.3031 55.5467 51.4965 54.54 51.8831 53.7C52.2831 52.86 52.8365 52.2133 53.5431 51.76C54.2631 51.3067 55.0965 51.08 56.0431 51.08ZM56.0231 52.52C55.1831 52.52 54.5165 52.7933 54.0231 53.34C53.5431 53.8733 53.2565 54.62 53.1631 55.58H58.6231C58.6231 54.9667 58.5298 54.4333 58.3431 53.98C58.1565 53.5267 57.8698 53.1733 57.4831 52.92C57.1098 52.6533 56.6231 52.52 56.0231 52.52ZM67.2522 51.1C68.5589 51.1 69.5255 51.3867 70.1522 51.96C70.7789 52.5333 71.0922 53.4467 71.0922 54.7V62H69.8122L69.4722 60.48H69.3922C69.0855 60.8667 68.7655 61.1933 68.4322 61.46C68.1122 61.7133 67.7389 61.9 67.3122 62.02C66.8989 62.14 66.3922 62.2 65.7922 62.2C65.1522 62.2 64.5722 62.0867 64.0522 61.86C63.5455 61.6333 63.1455 61.2867 62.8522 60.82C62.5589 60.34 62.4122 59.74 62.4122 59.02C62.4122 57.9533 62.8322 57.1333 63.6722 56.56C64.5122 55.9733 65.8055 55.6533 67.5522 55.6L69.3722 55.54V54.9C69.3722 54.0067 69.1789 53.3867 68.7922 53.04C68.4055 52.6933 67.8589 52.52 67.1522 52.52C66.5922 52.52 66.0589 52.6067 65.5522 52.78C65.0455 52.94 64.5722 53.1267 64.1322 53.34L63.5922 52.02C64.0589 51.7667 64.6122 51.5533 65.2522 51.38C65.8922 51.1933 66.5589 51.1 67.2522 51.1ZM67.7722 56.82C66.4389 56.8733 65.5122 57.0867 64.9922 57.46C64.4855 57.8333 64.2322 58.36 64.2322 59.04C64.2322 59.64 64.4122 60.08 64.7722 60.36C65.1455 60.64 65.6189 60.78 66.1922 60.78C67.0989 60.78 67.8522 60.5333 68.4522 60.04C69.0522 59.5333 69.3522 58.76 69.3522 57.72V56.76L67.7722 56.82ZM76.1431 54.74C76.1431 54.9533 76.1298 55.2333 76.1031 55.58C76.0898 55.9267 76.0765 56.2267 76.0631 56.48H76.1431C76.2231 56.3733 76.3431 56.22 76.5031 56.02C76.6631 55.82 76.8231 55.62 76.9831 55.42C77.1565 55.2067 77.3031 55.0333 77.4231 54.9L80.8431 51.28H82.9031L78.5631 55.86L83.2031 62H81.0831L77.3631 57L76.1431 58.06V62H74.4031V46.8H76.1431V54.74ZM92.0667 59.04C92.0667 59.7333 91.8934 60.3133 91.5467 60.78C91.2001 61.2467 90.7067 61.6 90.0667 61.84C89.4267 62.08 88.6667 62.2 87.7867 62.2C87.0401 62.2 86.3934 62.14 85.8467 62.02C85.3134 61.9 84.8401 61.7333 84.4267 61.52V59.92C84.8534 60.1333 85.3667 60.3333 85.9667 60.52C86.5801 60.6933 87.2001 60.78 87.8267 60.78C88.7201 60.78 89.3667 60.64 89.7667 60.36C90.1667 60.0667 90.3667 59.68 90.3667 59.2C90.3667 58.9333 90.2934 58.6933 90.1467 58.48C90.0001 58.2667 89.7334 58.0533 89.3467 57.84C88.9734 57.6267 88.4334 57.3867 87.7267 57.12C87.0334 56.8533 86.4401 56.5867 85.9467 56.32C85.4534 56.0533 85.0734 55.7333 84.8067 55.36C84.5401 54.9867 84.4067 54.5067 84.4067 53.92C84.4067 53.0133 84.7734 52.3133 85.5067 51.82C86.2534 51.3267 87.2267 51.08 88.4267 51.08C89.0801 51.08 89.6867 51.1467 90.2467 51.28C90.8201 51.4 91.3534 51.5733 91.8467 51.8L91.2467 53.2C90.9534 53.0667 90.6401 52.9533 90.3067 52.86C89.9867 52.7533 89.6601 52.6733 89.3267 52.62C88.9934 52.5533 88.6534 52.52 88.3067 52.52C87.5867 52.52 87.0334 52.64 86.6467 52.88C86.2734 53.1067 86.0867 53.42 86.0867 53.82C86.0867 54.1133 86.1734 54.3667 86.3467 54.58C86.5201 54.78 86.8067 54.98 87.2067 55.18C87.6201 55.3667 88.1667 55.5933 88.8467 55.86C89.5267 56.1133 90.1067 56.3733 90.5867 56.64C91.0667 56.9067 91.4334 57.2333 91.6867 57.62C91.9401 57.9933 92.0667 58.4667 92.0667 59.04Z" fill="white"/>
    <path id="b0f22bab" d="M201.896 64.979L199.513 64.2876C199.263 64.2173 199.122 63.9556 199.192 63.7056L204.524 45.3384C204.595 45.0884 204.856 44.9478 205.106 45.0181L207.489 45.7095C207.739 45.7798 207.88 46.0415 207.81 46.2915L202.478 64.6587C202.403 64.9087 202.146 65.0532 201.896 64.979ZM197.442 60.5962L199.142 58.7837C199.321 58.5923 199.31 58.2876 199.11 58.1118L195.571 54.9985L199.11 51.8853C199.31 51.7095 199.325 51.4048 199.142 51.2134L197.442 49.4009C197.267 49.2134 196.97 49.2017 196.778 49.3814L191.149 54.6548C190.95 54.8384 190.95 55.1548 191.149 55.3384L196.778 60.6157C196.97 60.7954 197.267 60.7876 197.442 60.5962ZM210.224 60.6196L215.853 55.3423C216.052 55.1587 216.052 54.8423 215.853 54.6587L210.224 49.3775C210.036 49.2017 209.739 49.2095 209.56 49.397L207.86 51.2095C207.681 51.4009 207.692 51.7056 207.892 51.8814L211.431 54.9985L207.892 58.1118C207.692 58.2876 207.677 58.5923 207.86 58.7837L209.56 60.5962C209.735 60.7876 210.032 60.7954 210.224 60.6196Z" fill="#A0A0A0"/>
  </g>
  <defs>
    <linearGradient id="41b10cd4" x1="245" y1="5" x2="5" y2="245" gradientUnits="userSpaceOnUse">
      <stop/>
      <stop offset="1" stop-color="#1A1A1A"/>
    </linearGradient>
    <linearGradient id="faf29059" x1="50.5" y1="62" x2="50.5" y2="149" gradientUnits="userSpaceOnUse">
      <stop stop-color="white"/>
      <stop offset="1" stop-color="#999999"/>
    </linearGradient>
  </defs>
</svg>