<svg width="$size" height="$size" viewBox="0 0 250 250" fill="none" xmlns="http://www.w3.org/2000/svg">
    <rect x="5" y="5" width="240" height="240" rx="20" fill="url(#paint0_linear_12_25)" />
    <text fill="black" font-size="58px" x="30" y="140" font-family="sans-serif" font-weight="700">
        $num
    </text>
    <path
        d="M44.021 187H42.578V182.762H38.574V187H37.131V177.718H38.574V181.566H42.578V177.718H44.021V187ZM48.806 179.863C49.3867 179.863 49.8893 179.993 50.314 180.253C50.7387 180.504 51.0637 180.868 51.289 181.345C51.523 181.822 51.64 182.385 51.64 183.035V183.789H47.233C47.2503 184.508 47.4237 185.059 47.753 185.44C48.0823 185.821 48.546 186.012 49.144 186.012C49.5687 186.012 49.9457 185.973 50.275 185.895C50.613 185.808 50.9553 185.683 51.302 185.518V186.662C50.9727 186.818 50.6347 186.935 50.288 187.013C49.95 187.091 49.5383 187.13 49.053 187.13C48.4203 187.13 47.857 186.996 47.363 186.727C46.869 186.458 46.4833 186.06 46.206 185.531C45.9287 184.994 45.79 184.335 45.79 183.555C45.79 182.766 45.9157 182.099 46.167 181.553C46.4183 181.007 46.7693 180.591 47.22 180.305C47.6793 180.01 48.208 179.863 48.806 179.863ZM48.806 180.929C48.364 180.929 48.0087 181.089 47.74 181.41C47.4713 181.731 47.3153 182.186 47.272 182.775H50.249C50.249 182.411 50.197 182.09 50.093 181.813C49.989 181.536 49.8287 181.319 49.612 181.163C49.404 181.007 49.1353 180.929 48.806 180.929ZM51.9964 179.993H53.5044L54.8434 183.971C54.9127 184.17 54.9734 184.365 55.0254 184.556C55.0861 184.747 55.1337 184.937 55.1684 185.128C55.2117 185.31 55.2464 185.492 55.2724 185.674H55.3114C55.3547 185.449 55.4154 185.184 55.4934 184.881C55.5714 184.569 55.6581 184.261 55.7534 183.958L57.0274 179.993H58.5484L55.7404 187.949C55.5757 188.4 55.3764 188.785 55.1424 189.106C54.9171 189.435 54.6397 189.687 54.3104 189.86C53.9897 190.033 53.6041 190.12 53.1534 190.12C52.9627 190.12 52.7894 190.107 52.6334 190.081C52.4861 190.064 52.3561 190.042 52.2434 190.016V188.924C52.3301 188.941 52.4384 188.959 52.5684 188.976C52.6984 188.993 52.8327 189.002 52.9714 189.002C53.2227 189.002 53.4394 188.95 53.6214 188.846C53.8034 188.742 53.9551 188.595 54.0764 188.404C54.1977 188.222 54.2974 188.005 54.3754 187.754L54.6354 187L51.9964 179.993ZM60.8089 184.244H59.6649L59.4179 177.718H61.0689L60.8089 184.244ZM59.3399 186.233C59.3399 185.895 59.4265 185.657 59.5999 185.518C59.7732 185.379 59.9855 185.31 60.2369 185.31C60.4709 185.31 60.6745 185.379 60.8479 185.518C61.0299 185.657 61.1209 185.895 61.1209 186.233C61.1209 186.571 61.0299 186.814 60.8479 186.961C60.6745 187.108 60.4709 187.182 60.2369 187.182C59.9855 187.182 59.7732 187.108 59.5999 186.961C59.4265 186.814 59.3399 186.571 59.3399 186.233ZM43.8 205H42.136L39.419 200.723L38.574 201.477V205H37.131V195.718H38.574V200.203C38.7733 199.934 38.977 199.67 39.185 199.41C39.393 199.15 39.601 198.89 39.809 198.63L42.084 195.718H43.722L40.446 199.774L43.8 205ZM47.4349 197.863C48.0156 197.863 48.5183 197.993 48.9429 198.253C49.3676 198.504 49.6926 198.868 49.9179 199.345C50.1519 199.822 50.2689 200.385 50.2689 201.035V201.789H45.8619C45.8793 202.508 46.0526 203.059 46.3819 203.44C46.7113 203.821 47.1749 204.012 47.7729 204.012C48.1976 204.012 48.5746 203.973 48.9039 203.895C49.2419 203.808 49.5843 203.683 49.9309 203.518V204.662C49.6016 204.818 49.2636 204.935 48.9169 205.013C48.5789 205.091 48.1673 205.13 47.6819 205.13C47.0493 205.13 46.4859 204.996 45.9919 204.727C45.4979 204.458 45.1123 204.06 44.8349 203.531C44.5576 202.994 44.4189 202.335 44.4189 201.555C44.4189 200.766 44.5446 200.099 44.7959 199.553C45.0473 199.007 45.3983 198.591 45.8489 198.305C46.3083 198.01 46.8369 197.863 47.4349 197.863ZM47.4349 198.929C46.9929 198.929 46.6376 199.089 46.3689 199.41C46.1003 199.731 45.9443 200.186 45.9009 200.775H48.8779C48.8779 200.411 48.8259 200.09 48.7219 199.813C48.6179 199.536 48.4576 199.319 48.2409 199.163C48.0329 199.007 47.7643 198.929 47.4349 198.929ZM54.4935 197.863C55.0742 197.863 55.5768 197.993 56.0015 198.253C56.4262 198.504 56.7512 198.868 56.9765 199.345C57.2105 199.822 57.3275 200.385 57.3275 201.035V201.789H52.9205C52.9378 202.508 53.1112 203.059 53.4405 203.44C53.7698 203.821 54.2335 204.012 54.8315 204.012C55.2562 204.012 55.6332 203.973 55.9625 203.895C56.3005 203.808 56.6428 203.683 56.9895 203.518V204.662C56.6602 204.818 56.3222 204.935 55.9755 205.013C55.6375 205.091 55.2258 205.13 54.7405 205.13C54.1078 205.13 53.5445 204.996 53.0505 204.727C52.5565 204.458 52.1708 204.06 51.8935 203.531C51.6162 202.994 51.4775 202.335 51.4775 201.555C51.4775 200.766 51.6032 200.099 51.8545 199.553C52.1058 199.007 52.4568 198.591 52.9075 198.305C53.3668 198.01 53.8955 197.863 54.4935 197.863ZM54.4935 198.929C54.0515 198.929 53.6962 199.089 53.4275 199.41C53.1588 199.731 53.0028 200.186 52.9595 200.775H55.9365C55.9365 200.411 55.8845 200.09 55.7805 199.813C55.6765 199.536 55.5162 199.319 55.2995 199.163C55.0915 199.007 54.8228 198.929 54.4935 198.929ZM62.2801 197.863C63.0688 197.863 63.7014 198.166 64.1781 198.773C64.6548 199.38 64.8931 200.285 64.8931 201.49C64.8931 202.279 64.7804 202.946 64.5551 203.492C64.3384 204.038 64.0308 204.45 63.6321 204.727C63.2334 204.996 62.7698 205.13 62.2411 205.13C61.9204 205.13 61.6344 205.087 61.3831 205C61.1318 204.905 60.9194 204.783 60.7461 204.636C60.5814 204.48 60.4341 204.315 60.3041 204.142H60.2261C60.2434 204.298 60.2608 204.484 60.2781 204.701C60.2954 204.909 60.3041 205.095 60.3041 205.26V208.12H58.9001V197.993H60.0441L60.2391 198.929H60.3041C60.4341 198.738 60.5858 198.561 60.7591 198.396C60.9411 198.231 61.1534 198.101 61.3961 198.006C61.6474 197.911 61.9421 197.863 62.2801 197.863ZM61.9031 198.994C61.5218 198.994 61.2141 199.081 60.9801 199.254C60.7461 199.419 60.5728 199.67 60.4601 200.008C60.3561 200.337 60.3041 200.758 60.3041 201.269V201.477C60.3041 202.014 60.3518 202.474 60.4471 202.855C60.5511 203.228 60.7201 203.514 60.9541 203.713C61.1968 203.904 61.5218 203.999 61.9291 203.999C62.2758 203.999 62.5618 203.895 62.7871 203.687C63.0124 203.47 63.1771 203.171 63.2811 202.79C63.3938 202.409 63.4501 201.967 63.4501 201.464C63.4501 200.701 63.3201 200.099 63.0601 199.657C62.8088 199.215 62.4231 198.994 61.9031 198.994ZM72.3954 205.13C71.7801 205.13 71.2384 205.004 70.7704 204.753C70.3111 204.502 69.9514 204.112 69.6914 203.583C69.4401 203.046 69.3144 202.365 69.3144 201.542C69.3144 200.675 69.4531 199.973 69.7304 199.436C70.0078 198.899 70.3848 198.504 70.8614 198.253C71.3381 197.993 71.8841 197.863 72.4994 197.863C72.8634 197.863 73.2101 197.906 73.5394 197.993C73.8774 198.071 74.1548 198.162 74.3714 198.266L73.9424 199.371C73.7258 199.284 73.4918 199.206 73.2404 199.137C72.9891 199.068 72.7508 199.033 72.5254 199.033C72.1268 199.033 71.7974 199.128 71.5374 199.319C71.2861 199.501 71.0954 199.778 70.9654 200.151C70.8354 200.515 70.7704 200.974 70.7704 201.529C70.7704 202.058 70.8354 202.504 70.9654 202.868C71.0954 203.232 71.2861 203.509 71.5374 203.7C71.7974 203.882 72.1094 203.973 72.4734 203.973C72.8288 203.973 73.1451 203.93 73.4224 203.843C73.7084 203.756 73.9728 203.644 74.2154 203.505V204.701C73.9728 204.848 73.7084 204.957 73.4224 205.026C73.1364 205.095 72.7941 205.13 72.3954 205.13ZM81.6231 201.49C81.6231 202.071 81.5494 202.586 81.4021 203.037C81.2548 203.488 81.0424 203.869 80.7651 204.181C80.4964 204.493 80.1671 204.731 79.7771 204.896C79.3871 205.052 78.9494 205.13 78.4641 205.13C78.0221 205.13 77.6104 205.052 77.2291 204.896C76.8478 204.731 76.5184 204.493 76.2411 204.181C75.9638 203.869 75.7471 203.488 75.5911 203.037C75.4438 202.586 75.3701 202.066 75.3701 201.477C75.3701 200.706 75.4958 200.051 75.7471 199.514C75.9984 198.977 76.3581 198.569 76.8261 198.292C77.3028 198.006 77.8661 197.863 78.5161 197.863C79.1228 197.863 79.6601 198.006 80.1281 198.292C80.5961 198.569 80.9601 198.977 81.2201 199.514C81.4888 200.051 81.6231 200.71 81.6231 201.49ZM76.8261 201.49C76.8261 202.01 76.8824 202.461 76.9951 202.842C77.1164 203.215 77.2984 203.501 77.5411 203.7C77.7924 203.899 78.1088 203.999 78.4901 203.999C78.8801 203.999 79.1964 203.899 79.4391 203.7C79.6904 203.501 79.8724 203.215 79.9851 202.842C80.1064 202.461 80.1671 202.01 80.1671 201.49C80.1671 200.953 80.1064 200.502 79.9851 200.138C79.8638 199.774 79.6818 199.497 79.4391 199.306C79.1964 199.107 78.8758 199.007 78.4771 199.007C77.8964 199.007 77.4761 199.224 77.2161 199.657C76.9561 200.09 76.8261 200.701 76.8261 201.49ZM85.4733 205.13C84.6933 205.13 84.0607 204.827 83.5753 204.22C83.0987 203.613 82.8603 202.712 82.8603 201.516C82.8603 200.311 83.103 199.401 83.5883 198.786C84.0737 198.171 84.7107 197.863 85.4993 197.863C85.8373 197.863 86.1277 197.911 86.3703 198.006C86.613 198.093 86.8253 198.214 87.0073 198.37C87.1893 198.526 87.341 198.699 87.4623 198.89H87.5403C87.523 198.769 87.5013 198.595 87.4753 198.37C87.458 198.136 87.4493 197.928 87.4493 197.746V195.12H88.8533V205H87.7483L87.5013 204.064H87.4493C87.328 204.263 87.1763 204.445 86.9943 204.61C86.8123 204.766 86.5957 204.892 86.3443 204.987C86.1017 205.082 85.8113 205.13 85.4733 205.13ZM85.8503 203.999C86.457 203.999 86.8817 203.813 87.1243 203.44C87.3757 203.059 87.5013 202.491 87.5013 201.737V201.529C87.5013 200.706 87.3843 200.077 87.1503 199.644C86.9163 199.211 86.4787 198.994 85.8373 198.994C85.3347 198.994 84.9533 199.224 84.6933 199.683C84.4333 200.134 84.3033 200.753 84.3033 201.542C84.3033 202.331 84.4333 202.937 84.6933 203.362C84.9533 203.787 85.339 203.999 85.8503 203.999ZM92.2458 197.993V205H90.8288V197.993H92.2458ZM91.5568 195.328C91.7648 195.328 91.9468 195.389 92.1028 195.51C92.2588 195.631 92.3368 195.835 92.3368 196.121C92.3368 196.398 92.2588 196.602 92.1028 196.732C91.9468 196.853 91.7648 196.914 91.5568 196.914C91.3315 196.914 91.1408 196.853 90.9848 196.732C90.8288 196.602 90.7508 196.398 90.7508 196.121C90.7508 195.835 90.8288 195.631 90.9848 195.51C91.1408 195.389 91.3315 195.328 91.5568 195.328ZM97.6505 197.863C98.4131 197.863 98.9981 198.067 99.4055 198.474C99.8215 198.881 100.029 199.536 100.029 200.437V205H98.6255V200.632C98.6255 200.086 98.5171 199.679 98.3005 199.41C98.0925 199.133 97.7675 198.994 97.3255 198.994C96.6755 198.994 96.2291 199.206 95.9865 199.631C95.7438 200.056 95.6225 200.667 95.6225 201.464V205H94.2185V197.993H95.3235L95.5185 198.929H95.5965C95.7438 198.686 95.9215 198.487 96.1295 198.331C96.3375 198.175 96.5715 198.058 96.8315 197.98C97.0915 197.902 97.3645 197.863 97.6505 197.863ZM104.238 197.863C104.662 197.863 105.039 197.95 105.369 198.123C105.707 198.296 105.993 198.561 106.227 198.916H106.279L106.435 197.993H107.592V205.091C107.592 205.75 107.479 206.304 107.254 206.755C107.028 207.206 106.686 207.544 106.227 207.769C105.767 208.003 105.187 208.12 104.485 208.12C103.999 208.12 103.557 208.085 103.159 208.016C102.769 207.947 102.405 207.838 102.067 207.691V206.482C102.292 206.603 102.535 206.703 102.795 206.781C103.055 206.868 103.328 206.928 103.614 206.963C103.908 207.006 104.212 207.028 104.524 207.028C105.061 207.028 105.473 206.863 105.759 206.534C106.053 206.213 106.201 205.758 106.201 205.169V204.935C106.201 204.822 106.205 204.675 106.214 204.493C106.222 204.302 106.231 204.164 106.24 204.077H106.188C105.971 204.441 105.698 204.71 105.369 204.883C105.048 205.048 104.667 205.13 104.225 205.13C103.41 205.13 102.769 204.814 102.301 204.181C101.833 203.54 101.599 202.651 101.599 201.516C101.599 200.753 101.703 200.103 101.911 199.566C102.127 199.02 102.431 198.6 102.821 198.305C103.219 198.01 103.692 197.863 104.238 197.863ZM104.576 199.007C104.246 199.007 103.969 199.107 103.744 199.306C103.518 199.497 103.345 199.778 103.224 200.151C103.111 200.524 103.055 200.983 103.055 201.529C103.055 202.344 103.185 202.963 103.445 203.388C103.705 203.813 104.086 204.025 104.589 204.025C104.883 204.025 105.135 203.982 105.343 203.895C105.551 203.808 105.72 203.674 105.85 203.492C105.988 203.31 106.088 203.08 106.149 202.803C106.218 202.517 106.253 202.175 106.253 201.776V201.516C106.253 200.918 106.192 200.437 106.071 200.073C105.958 199.7 105.776 199.432 105.525 199.267C105.282 199.094 104.966 199.007 104.576 199.007ZM110.841 202.244H109.697L109.45 195.718H111.101L110.841 202.244ZM109.372 204.233C109.372 203.895 109.459 203.657 109.632 203.518C109.805 203.379 110.018 203.31 110.269 203.31C110.503 203.31 110.707 203.379 110.88 203.518C111.062 203.657 111.153 203.895 111.153 204.233C111.153 204.571 111.062 204.814 110.88 204.961C110.707 205.108 110.503 205.182 110.269 205.182C110.018 205.182 109.805 205.108 109.632 204.961C109.459 204.814 109.372 204.571 109.372 204.233Z"
        fill="#171717" />
    <path
        d="M42.04 58.18C42.04 59.0333 41.8333 59.76 41.42 60.36C41.0067 60.9467 40.4133 61.4 39.64 61.72C38.88 62.04 37.98 62.2 36.94 62.2C36.4067 62.2 35.8933 62.1733 35.4 62.12C34.92 62.0667 34.48 61.9933 34.08 61.9C33.68 61.7933 33.3267 61.6667 33.02 61.52V59.8C33.5 60.0133 34.0933 60.2067 34.8 60.38C35.52 60.5533 36.26 60.64 37.02 60.64C37.7267 60.64 38.32 60.5467 38.8 60.36C39.28 60.1733 39.64 59.9067 39.88 59.56C40.12 59.2133 40.24 58.8067 40.24 58.34C40.24 57.8733 40.14 57.48 39.94 57.16C39.74 56.84 39.3933 56.5467 38.9 56.28C38.42 56 37.7467 55.7067 36.88 55.4C36.2667 55.1733 35.7267 54.9333 35.26 54.68C34.8067 54.4133 34.4267 54.1133 34.12 53.78C33.8133 53.4467 33.58 53.0667 33.42 52.64C33.2733 52.2133 33.2 51.72 33.2 51.16C33.2 50.4 33.3933 49.7533 33.78 49.22C34.1667 48.6733 34.7 48.2533 35.38 47.96C36.0733 47.6667 36.8667 47.52 37.76 47.52C38.5467 47.52 39.2667 47.5933 39.92 47.74C40.5733 47.8867 41.1667 48.08 41.7 48.32L41.14 49.86C40.6467 49.6467 40.1067 49.4667 39.52 49.32C38.9467 49.1733 38.3467 49.1 37.72 49.1C37.12 49.1 36.62 49.1867 36.22 49.36C35.82 49.5333 35.52 49.78 35.32 50.1C35.12 50.4067 35.02 50.7667 35.02 51.18C35.02 51.66 35.12 52.06 35.32 52.38C35.52 52.7 35.8467 52.9867 36.3 53.24C36.7533 53.4933 37.3667 53.7667 38.14 54.06C38.98 54.3667 39.6867 54.7 40.26 55.06C40.8467 55.4067 41.2867 55.8267 41.58 56.32C41.8867 56.8133 42.04 57.4333 42.04 58.18ZM48.2566 60.76C48.5232 60.76 48.7966 60.74 49.0766 60.7C49.3566 60.6467 49.5832 60.5933 49.7566 60.54V61.88C49.5699 61.9733 49.3032 62.0467 48.9566 62.1C48.6099 62.1667 48.2766 62.2 47.9566 62.2C47.3966 62.2 46.8766 62.1067 46.3966 61.92C45.9299 61.72 45.5499 61.38 45.2566 60.9C44.9632 60.42 44.8166 59.7467 44.8166 58.88V52.64H43.2966V51.8L44.8366 51.1L45.5366 48.82H46.5766V51.28H49.6766V52.64H46.5766V58.84C46.5766 59.4933 46.7299 59.98 47.0366 60.3C47.3566 60.6067 47.7632 60.76 48.2566 60.76ZM56.0431 51.08C56.9631 51.08 57.7498 51.28 58.4031 51.68C59.0698 52.08 59.5765 52.6467 59.9231 53.38C60.2831 54.1 60.4631 54.9467 60.4631 55.92V56.98H53.1231C53.1498 58.1933 53.4565 59.12 54.0431 59.76C54.6431 60.3867 55.4765 60.7 56.5431 60.7C57.2231 60.7 57.8231 60.64 58.3431 60.52C58.8765 60.3867 59.4231 60.2 59.9831 59.96V61.5C59.4365 61.74 58.8965 61.9133 58.3631 62.02C57.8298 62.14 57.1965 62.2 56.4631 62.2C55.4498 62.2 54.5498 61.9933 53.7631 61.58C52.9898 61.1667 52.3831 60.5533 51.9431 59.74C51.5165 58.9133 51.3031 57.9067 51.3031 56.72C51.3031 55.5467 51.4965 54.54 51.8831 53.7C52.2831 52.86 52.8365 52.2133 53.5431 51.76C54.2631 51.3067 55.0965 51.08 56.0431 51.08ZM56.0231 52.52C55.1831 52.52 54.5165 52.7933 54.0231 53.34C53.5431 53.8733 53.2565 54.62 53.1631 55.58H58.6231C58.6231 54.9667 58.5298 54.4333 58.3431 53.98C58.1565 53.5267 57.8698 53.1733 57.4831 52.92C57.1098 52.6533 56.6231 52.52 56.0231 52.52ZM67.2522 51.1C68.5589 51.1 69.5255 51.3867 70.1522 51.96C70.7789 52.5333 71.0922 53.4467 71.0922 54.7V62H69.8122L69.4722 60.48H69.3922C69.0855 60.8667 68.7655 61.1933 68.4322 61.46C68.1122 61.7133 67.7389 61.9 67.3122 62.02C66.8989 62.14 66.3922 62.2 65.7922 62.2C65.1522 62.2 64.5722 62.0867 64.0522 61.86C63.5455 61.6333 63.1455 61.2867 62.8522 60.82C62.5589 60.34 62.4122 59.74 62.4122 59.02C62.4122 57.9533 62.8322 57.1333 63.6722 56.56C64.5122 55.9733 65.8055 55.6533 67.5522 55.6L69.3722 55.54V54.9C69.3722 54.0067 69.1789 53.3867 68.7922 53.04C68.4055 52.6933 67.8589 52.52 67.1522 52.52C66.5922 52.52 66.0589 52.6067 65.5522 52.78C65.0455 52.94 64.5722 53.1267 64.1322 53.34L63.5922 52.02C64.0589 51.7667 64.6122 51.5533 65.2522 51.38C65.8922 51.1933 66.5589 51.1 67.2522 51.1ZM67.7722 56.82C66.4389 56.8733 65.5122 57.0867 64.9922 57.46C64.4855 57.8333 64.2322 58.36 64.2322 59.04C64.2322 59.64 64.4122 60.08 64.7722 60.36C65.1455 60.64 65.6189 60.78 66.1922 60.78C67.0989 60.78 67.8522 60.5333 68.4522 60.04C69.0522 59.5333 69.3522 58.76 69.3522 57.72V56.76L67.7722 56.82ZM76.1431 54.74C76.1431 54.9533 76.1298 55.2333 76.1031 55.58C76.0898 55.9267 76.0765 56.2267 76.0631 56.48H76.1431C76.2231 56.3733 76.3431 56.22 76.5031 56.02C76.6631 55.82 76.8231 55.62 76.9831 55.42C77.1565 55.2067 77.3031 55.0333 77.4231 54.9L80.8431 51.28H82.9031L78.5631 55.86L83.2031 62H81.0831L77.3631 57L76.1431 58.06V62H74.4031V46.8H76.1431V54.74ZM92.0667 59.04C92.0667 59.7333 91.8934 60.3133 91.5467 60.78C91.2001 61.2467 90.7067 61.6 90.0667 61.84C89.4267 62.08 88.6667 62.2 87.7867 62.2C87.0401 62.2 86.3934 62.14 85.8467 62.02C85.3134 61.9 84.8401 61.7333 84.4267 61.52V59.92C84.8534 60.1333 85.3667 60.3333 85.9667 60.52C86.5801 60.6933 87.2001 60.78 87.8267 60.78C88.7201 60.78 89.3667 60.64 89.7667 60.36C90.1667 60.0667 90.3667 59.68 90.3667 59.2C90.3667 58.9333 90.2934 58.6933 90.1467 58.48C90.0001 58.2667 89.7334 58.0533 89.3467 57.84C88.9734 57.6267 88.4334 57.3867 87.7267 57.12C87.0334 56.8533 86.4401 56.5867 85.9467 56.32C85.4534 56.0533 85.0734 55.7333 84.8067 55.36C84.5401 54.9867 84.4067 54.5067 84.4067 53.92C84.4067 53.0133 84.7734 52.3133 85.5067 51.82C86.2534 51.3267 87.2267 51.08 88.4267 51.08C89.0801 51.08 89.6867 51.1467 90.2467 51.28C90.8201 51.4 91.3534 51.5733 91.8467 51.8L91.2467 53.2C90.9534 53.0667 90.6401 52.9533 90.3067 52.86C89.9867 52.7533 89.6601 52.6733 89.3267 52.62C88.9934 52.5533 88.6534 52.52 88.3067 52.52C87.5867 52.52 87.0334 52.64 86.6467 52.88C86.2734 53.1067 86.0867 53.42 86.0867 53.82C86.0867 54.1133 86.1734 54.3667 86.3467 54.58C86.5201 54.78 86.8067 54.98 87.2067 55.18C87.6201 55.3667 88.1667 55.5933 88.8467 55.86C89.5267 56.1133 90.1067 56.3733 90.5867 56.64C91.0667 56.9067 91.4334 57.2333 91.6867 57.62C91.9401 57.9933 92.0667 58.4667 92.0667 59.04Z"
        fill="#090909" />
    <path
        d="M201.896 64.979L199.513 64.2876C199.263 64.2173 199.122 63.9556 199.192 63.7056L204.524 45.3384C204.595 45.0884 204.856 44.9478 205.106 45.0181L207.489 45.7095C207.739 45.7798 207.88 46.0415 207.81 46.2915L202.478 64.6587C202.403 64.9087 202.146 65.0532 201.896 64.979ZM197.442 60.5962L199.142 58.7837C199.321 58.5923 199.31 58.2876 199.11 58.1118L195.571 54.9985L199.11 51.8853C199.31 51.7095 199.325 51.4048 199.142 51.2134L197.442 49.4009C197.267 49.2134 196.97 49.2017 196.778 49.3814L191.149 54.6548C190.95 54.8384 190.95 55.1548 191.149 55.3384L196.778 60.6157C196.97 60.7954 197.267 60.7876 197.442 60.5962ZM210.224 60.6196L215.853 55.3423C216.052 55.1587 216.052 54.8423 215.853 54.6587L210.224 49.3775C210.036 49.2017 209.739 49.2095 209.56 49.397L207.86 51.2095C207.681 51.4009 207.692 51.7056 207.892 51.8814L211.431 54.9985L207.892 58.1118C207.692 58.2876 207.677 58.5923 207.86 58.7837L209.56 60.5962C209.735 60.7876 210.032 60.7954 210.224 60.6196Z"
        fill="url(#paint1_linear_12_25)" />
    <rect x="29" y="170" width="3" height="44" rx="1.5" fill="#64CA5B" />
    <defs>
        <linearGradient id="paint0_linear_12_25" x1="245" y1="5" x2="5" y2="245" gradientUnits="userSpaceOnUse">
            <stop stop-color="white" />
        </linearGradient>
        <linearGradient id="paint1_linear_12_25" x1="203.501" y1="45" x2="203.501" y2="64.9985"
            gradientUnits="userSpaceOnUse">
            <stop />
            <stop offset="1" stop-color="#676767" />
        </linearGradient>
    </defs>
</svg>