<svg width="540" height="176" viewBox="0 0 540 176" fill="none" xmlns="http://www.w3.org/2000/svg">
    <rect width="540" height="176" rx="20" fill="url(#paint0_linear_32_36)" $stroke />
    <text fill="url(#paint1_linear_32_36)" y="115" x="30" font-family="sans-serif" font-weight="600" font-size="60">
        $total_number
    </text>
    <text y="30" x="30" font-family="Verdana" fill="rgba(255,255,255,0.8)">
        $repo
    </text>
    <path
        d="M425.55 154V147.51H423.55V146.69H428.45V147.51H426.45V154H425.55ZM431.996 154.08C431.556 154.08 431.176 153.997 430.856 153.83C430.536 153.663 430.286 153.423 430.106 153.11C429.933 152.79 429.846 152.413 429.846 151.98V150.52C429.846 150.08 429.933 149.703 430.106 149.39C430.286 149.077 430.536 148.837 430.856 148.67C431.176 148.503 431.556 148.42 431.996 148.42C432.436 148.42 432.816 148.503 433.136 148.67C433.456 148.837 433.703 149.077 433.876 149.39C434.056 149.703 434.146 150.077 434.146 150.51V151.98C434.146 152.413 434.056 152.79 433.876 153.11C433.703 153.423 433.456 153.663 433.136 153.83C432.816 153.997 432.436 154.08 431.996 154.08ZM431.996 153.28C432.389 153.28 432.696 153.17 432.916 152.95C433.136 152.73 433.246 152.407 433.246 151.98V150.52C433.246 150.093 433.136 149.77 432.916 149.55C432.696 149.33 432.389 149.22 431.996 149.22C431.609 149.22 431.303 149.33 431.076 149.55C430.856 149.77 430.746 150.093 430.746 150.52V151.98C430.746 152.407 430.856 152.73 431.076 152.95C431.303 153.17 431.609 153.28 431.996 153.28ZM438.592 154C438.119 154 437.749 153.873 437.482 153.62C437.222 153.367 437.092 153.01 437.092 152.55V149.32H435.542V148.5H437.092V146.95H437.992V148.5H440.192V149.32H437.992V152.55C437.992 152.97 438.192 153.18 438.592 153.18H440.092V154H438.592ZM443.508 154.1C442.928 154.1 442.472 153.953 442.138 153.66C441.805 153.36 441.638 152.957 441.638 152.45C441.638 151.937 441.805 151.533 442.138 151.24C442.472 150.947 442.922 150.8 443.488 150.8H445.188V150.25C445.188 149.91 445.085 149.65 444.878 149.47C444.678 149.283 444.392 149.19 444.018 149.19C443.692 149.19 443.418 149.26 443.198 149.4C442.978 149.533 442.852 149.717 442.818 149.95H441.918C441.978 149.477 442.202 149.1 442.588 148.82C442.975 148.54 443.458 148.4 444.038 148.4C444.672 148.4 445.172 148.563 445.538 148.89C445.905 149.217 446.088 149.66 446.088 150.22V154H445.208V152.95H445.058L445.208 152.8C445.208 153.2 445.052 153.517 444.738 153.75C444.432 153.983 444.022 154.1 443.508 154.1ZM443.728 153.39C444.155 153.39 444.505 153.283 444.778 153.07C445.052 152.857 445.188 152.583 445.188 152.25V151.47H443.508C443.208 151.47 442.972 151.553 442.798 151.72C442.625 151.887 442.538 152.113 442.538 152.4C442.538 152.707 442.642 152.95 442.848 153.13C443.062 153.303 443.355 153.39 443.728 153.39ZM450.734 154C450.414 154 450.134 153.937 449.894 153.81C449.654 153.683 449.468 153.503 449.334 153.27C449.201 153.037 449.134 152.763 449.134 152.45V147.52H447.284V146.7H450.034V152.45C450.034 152.677 450.098 152.857 450.224 152.99C450.351 153.117 450.521 153.18 450.734 153.18H452.484V154H450.734ZM459.897 154V146.7H461.787C462.26 146.7 462.667 146.79 463.007 146.97C463.353 147.15 463.62 147.403 463.807 147.73C464 148.057 464.097 148.443 464.097 148.89V151.8C464.097 152.247 464 152.637 463.807 152.97C463.62 153.297 463.353 153.55 463.007 153.73C462.667 153.91 462.26 154 461.787 154H459.897ZM460.797 153.2H461.787C462.227 153.2 462.57 153.077 462.817 152.83C463.07 152.583 463.197 152.24 463.197 151.8V148.89C463.197 148.457 463.07 148.117 462.817 147.87C462.57 147.623 462.227 147.5 461.787 147.5H460.797V153.2ZM467.973 154.08C467.533 154.08 467.153 153.997 466.833 153.83C466.513 153.663 466.263 153.423 466.083 153.11C465.909 152.79 465.823 152.413 465.823 151.98V150.52C465.823 150.08 465.909 149.703 466.083 149.39C466.263 149.077 466.513 148.837 466.833 148.67C467.153 148.503 467.533 148.42 467.973 148.42C468.413 148.42 468.793 148.503 469.113 148.67C469.433 148.837 469.679 149.077 469.853 149.39C470.033 149.703 470.123 150.077 470.123 150.51V151.98C470.123 152.413 470.033 152.79 469.853 153.11C469.679 153.423 469.433 153.663 469.113 153.83C468.793 153.997 468.413 154.08 467.973 154.08ZM467.973 153.28C468.366 153.28 468.673 153.17 468.893 152.95C469.113 152.73 469.223 152.407 469.223 151.98V150.52C469.223 150.093 469.113 149.77 468.893 149.55C468.673 149.33 468.366 149.22 467.973 149.22C467.586 149.22 467.279 149.33 467.053 149.55C466.833 149.77 466.723 150.093 466.723 150.52V151.98C466.723 152.407 466.833 152.73 467.053 152.95C467.279 153.17 467.586 153.28 467.973 153.28ZM472.199 154L471.319 148.5H472.119L472.669 152.4C472.689 152.547 472.709 152.707 472.729 152.88C472.755 153.047 472.775 153.187 472.789 153.3C472.802 153.187 472.822 153.047 472.849 152.88C472.882 152.707 472.909 152.547 472.929 152.4L473.539 148.5H474.399L475.009 152.4C475.029 152.547 475.052 152.707 475.079 152.88C475.112 153.047 475.135 153.187 475.149 153.3C475.162 153.187 475.182 153.047 475.209 152.88C475.242 152.707 475.269 152.547 475.289 152.4L475.859 148.5H476.619L475.699 154H474.709L474.119 150.2C474.092 150.013 474.062 149.827 474.029 149.64C473.995 149.453 473.972 149.307 473.959 149.2C473.945 149.307 473.925 149.453 473.899 149.64C473.872 149.827 473.842 150.013 473.809 150.2L473.189 154H472.199ZM477.885 154V148.5H478.785V149.55H478.975L478.785 149.76C478.785 149.327 478.915 148.993 479.175 148.76C479.435 148.52 479.795 148.4 480.255 148.4C480.808 148.4 481.248 148.57 481.575 148.91C481.902 149.25 482.065 149.713 482.065 150.3V154H481.165V150.4C481.165 150.007 481.058 149.707 480.845 149.5C480.638 149.287 480.355 149.18 479.995 149.18C479.622 149.18 479.325 149.293 479.105 149.52C478.892 149.747 478.785 150.073 478.785 150.5V154H477.885ZM486.711 154C486.391 154 486.111 153.937 485.871 153.81C485.631 153.683 485.444 153.503 485.311 153.27C485.178 153.037 485.111 152.763 485.111 152.45V147.52H483.261V146.7H486.011V152.45C486.011 152.677 486.074 152.857 486.201 152.99C486.328 153.117 486.498 153.18 486.711 153.18H488.461V154H486.711ZM491.957 154.08C491.517 154.08 491.137 153.997 490.817 153.83C490.497 153.663 490.247 153.423 490.067 153.11C489.894 152.79 489.807 152.413 489.807 151.98V150.52C489.807 150.08 489.894 149.703 490.067 149.39C490.247 149.077 490.497 148.837 490.817 148.67C491.137 148.503 491.517 148.42 491.957 148.42C492.397 148.42 492.777 148.503 493.097 148.67C493.417 148.837 493.664 149.077 493.837 149.39C494.017 149.703 494.107 150.077 494.107 150.51V151.98C494.107 152.413 494.017 152.79 493.837 153.11C493.664 153.423 493.417 153.663 493.097 153.83C492.777 153.997 492.397 154.08 491.957 154.08ZM491.957 153.28C492.35 153.28 492.657 153.17 492.877 152.95C493.097 152.73 493.207 152.407 493.207 151.98V150.52C493.207 150.093 493.097 149.77 492.877 149.55C492.657 149.33 492.35 149.22 491.957 149.22C491.57 149.22 491.264 149.33 491.037 149.55C490.817 149.77 490.707 150.093 490.707 150.52V151.98C490.707 152.407 490.817 152.73 491.037 152.95C491.264 153.17 491.57 153.28 491.957 153.28ZM497.473 154.1C496.893 154.1 496.436 153.953 496.103 153.66C495.77 153.36 495.603 152.957 495.603 152.45C495.603 151.937 495.77 151.533 496.103 151.24C496.436 150.947 496.886 150.8 497.453 150.8H499.153V150.25C499.153 149.91 499.05 149.65 498.843 149.47C498.643 149.283 498.356 149.19 497.983 149.19C497.656 149.19 497.383 149.26 497.163 149.4C496.943 149.533 496.816 149.717 496.783 149.95H495.883C495.943 149.477 496.166 149.1 496.553 148.82C496.94 148.54 497.423 148.4 498.003 148.4C498.636 148.4 499.136 148.563 499.503 148.89C499.87 149.217 500.053 149.66 500.053 150.22V154H499.173V152.95H499.023L499.173 152.8C499.173 153.2 499.016 153.517 498.703 153.75C498.396 153.983 497.986 154.1 497.473 154.1ZM497.693 153.39C498.12 153.39 498.47 153.283 498.743 153.07C499.016 152.857 499.153 152.583 499.153 152.25V151.47H497.473C497.173 151.47 496.936 151.553 496.763 151.72C496.59 151.887 496.503 152.113 496.503 152.4C496.503 152.707 496.606 152.95 496.813 153.13C497.026 153.303 497.32 153.39 497.693 153.39ZM503.629 154.1C503.083 154.1 502.639 153.917 502.299 153.55C501.966 153.183 501.799 152.687 501.799 152.06V150.45C501.799 149.817 501.966 149.317 502.299 148.95C502.633 148.583 503.076 148.4 503.629 148.4C504.083 148.4 504.446 148.523 504.719 148.77C504.993 149.017 505.129 149.347 505.129 149.76L504.949 149.55H505.149L505.129 148.3V146.7H506.029V154H505.129V152.95H504.949L505.129 152.74C505.129 153.16 504.993 153.493 504.719 153.74C504.446 153.98 504.083 154.1 503.629 154.1ZM503.929 153.32C504.303 153.32 504.596 153.203 504.809 152.97C505.023 152.737 505.129 152.413 505.129 152V150.5C505.129 150.087 505.023 149.763 504.809 149.53C504.596 149.297 504.303 149.18 503.929 149.18C503.549 149.18 503.249 149.293 503.029 149.52C502.809 149.747 502.699 150.073 502.699 150.5V152C502.699 152.427 502.809 152.753 503.029 152.98C503.249 153.207 503.549 153.32 503.929 153.32ZM509.775 154.08C509.402 154.08 509.075 154.023 508.795 153.91C508.522 153.79 508.302 153.623 508.135 153.41C507.975 153.197 507.879 152.943 507.845 152.65H508.745C508.785 152.843 508.892 152.997 509.065 153.11C509.245 153.223 509.482 153.28 509.775 153.28H510.195C510.549 153.28 510.812 153.21 510.985 153.07C511.159 152.923 511.245 152.73 511.245 152.49C511.245 152.257 511.165 152.073 511.005 151.94C510.852 151.8 510.622 151.707 510.315 151.66L509.575 151.54C509.035 151.447 508.632 151.28 508.365 151.04C508.105 150.793 507.975 150.437 507.975 149.97C507.975 149.477 508.132 149.097 508.445 148.83C508.759 148.557 509.229 148.42 509.855 148.42H510.235C510.762 148.42 511.185 148.543 511.505 148.79C511.825 149.037 512.019 149.37 512.085 149.79H511.185C511.145 149.617 511.045 149.48 510.885 149.38C510.725 149.273 510.509 149.22 510.235 149.22H509.855C509.515 149.22 509.265 149.283 509.105 149.41C508.952 149.537 508.875 149.727 508.875 149.98C508.875 150.207 508.942 150.373 509.075 150.48C509.209 150.587 509.419 150.663 509.705 150.71L510.445 150.83C511.039 150.923 511.469 151.097 511.735 151.35C512.009 151.603 512.145 151.97 512.145 152.45C512.145 152.957 511.982 153.357 511.655 153.65C511.335 153.937 510.849 154.08 510.195 154.08H509.775Z"
        fill="white"/>
    <defs>
        <linearGradient id="paint0_linear_32_36" x1="540" y1="0" x2="436.291" y2="318.199"
            gradientUnits="userSpaceOnUse">
            <stop />
            <stop offset="1" stop-color="#1A1A1A" />
        </linearGradient>
        <linearGradient id="paint1_linear_32_36" x1="45.5" y1="57" x2="45.5" y2="144" gradientUnits="userSpaceOnUse">
            <stop stop-color="white" />
            <stop offset="1" stop-color="#999999" />
        </linearGradient>
    </defs>
</svg>